<svg width="126" height="26" viewBox="0 0 126 26" fill="none" xmlns="http://www.w3.org/2000/svg">
    <path
        d="M9.04803 9.23C10.0707 9.23 10.9634 9.03066 11.726 8.632C12.4887 8.23333 13.078 7.683 13.494 6.981C13.91 6.27033 14.118 5.46433 14.118 4.56299C14.118 3.65299 13.8277 2.951 13.247 2.457C12.675 1.963 11.7607 1.716 10.504 1.716H7.31903L7.39702 0.987995H10.738C11.908 0.987995 12.844 1.131 13.546 1.417C14.2567 1.69433 14.768 2.09733 15.08 2.62599C15.392 3.14599 15.548 3.76566 15.548 4.48499C15.548 5.44699 15.3097 6.305 14.833 7.059C14.3564 7.80433 13.6847 8.411 12.818 8.879C11.96 9.33833 10.9417 9.61133 9.76303 9.698V9.633C10.3177 9.65033 10.7424 9.75433 11.037 9.945C11.3404 10.127 11.5787 10.4087 11.752 10.79C11.9254 11.1713 12.09 11.6697 12.246 12.285L13.208 16.107C13.364 16.7223 13.5157 17.1773 13.663 17.472C13.819 17.758 14.0184 17.9443 14.261 18.031C14.5037 18.109 14.833 18.148 15.249 18.148L15.119 18.577C14.5297 18.6203 14.053 18.629 13.689 18.603C13.3337 18.5857 13.052 18.5077 12.844 18.369C12.636 18.2303 12.4627 18.0093 12.324 17.706C12.194 17.4027 12.064 16.991 11.934 16.471L10.92 12.298C10.7467 11.6047 10.5777 11.0933 10.413 10.764C10.2484 10.426 10.049 10.2093 9.81503 10.114C9.58103 10.01 9.26903 9.958 8.87903 9.958H4.92703L5.09603 9.23H9.04803ZM3.62703 17.797L5.62903 18.239L5.52503 18.577H2.48663e-05L0.0910249 18.239L2.27502 17.784L7.16302 1.755L5.16103 1.326L5.26502 0.987995H8.76203L3.62703 17.797ZM17.2185 17.862L20.7545 7.761L21.1055 8.086C20.8195 8.06 20.4859 8.10333 20.1045 8.216C19.7319 8.32866 19.3029 8.54966 18.8175 8.879C18.3409 9.20833 17.8035 9.69366 17.2055 10.335L16.9455 10.075C17.5695 9.25166 18.1459 8.61033 18.6745 8.151C19.2032 7.69166 19.6842 7.371 20.1175 7.189C20.5509 7.007 20.9365 6.916 21.2745 6.916C21.6385 6.916 21.8639 6.98966 21.9505 7.137C22.0459 7.27566 22.0372 7.50966 21.9245 7.839L18.3755 18.057L18.0765 17.654C18.3539 17.6973 18.6745 17.6757 19.0385 17.589C19.4112 17.5023 19.8402 17.3117 20.3255 17.017C20.8109 16.7223 21.3525 16.2847 21.9505 15.704L22.1975 15.977C21.5735 16.705 21.0059 17.277 20.4945 17.693C19.9832 18.109 19.5152 18.4037 19.0905 18.577C18.6745 18.7503 18.2932 18.837 17.9465 18.837C17.5219 18.837 17.2662 18.759 17.1795 18.603C17.0929 18.4557 17.1059 18.2087 17.2185 17.862ZM21.5475 1.23499C21.5475 1.01833 21.5995 0.823328 21.7035 0.649995C21.8075 0.467995 21.9462 0.329328 22.1195 0.233996C22.3015 0.129995 22.5052 0.0779946 22.7305 0.0779946C23.0945 0.0779946 23.3805 0.190661 23.5885 0.415995C23.8052 0.632661 23.9135 0.905661 23.9135 1.23499C23.9135 1.45166 23.8659 1.651 23.7705 1.83299C23.6752 2.00633 23.5365 2.145 23.3545 2.249C23.1812 2.35299 22.9732 2.40499 22.7305 2.40499C22.3839 2.40499 22.0979 2.29233 21.8725 2.06699C21.6559 1.84166 21.5475 1.56433 21.5475 1.23499ZM24.623 7.878L24.818 7.176H30.733L30.59 7.878H24.623ZM25.767 15.626C25.7064 15.8687 25.65 16.0853 25.598 16.276C25.5547 16.4667 25.52 16.6357 25.494 16.783C25.4767 16.9217 25.468 17.0473 25.468 17.16C25.468 17.368 25.507 17.5153 25.585 17.602C25.663 17.6887 25.7757 17.732 25.923 17.732C26.1484 17.732 26.43 17.6237 26.768 17.407C27.1147 17.1817 27.4917 16.8567 27.899 16.432C28.315 15.9987 28.731 15.47 29.147 14.846L29.511 15.08C29.1124 15.73 28.7224 16.289 28.341 16.757C27.9597 17.225 27.5957 17.615 27.249 17.927C26.9024 18.2303 26.573 18.4557 26.261 18.603C25.949 18.7503 25.6587 18.824 25.39 18.824C25.026 18.824 24.74 18.7243 24.532 18.525C24.3327 18.3257 24.233 17.992 24.233 17.524C24.233 17.3073 24.259 17.0517 24.311 16.757C24.363 16.4623 24.4454 16.12 24.558 15.73L27.691 4.771H28.913L25.767 15.626ZM31.3357 17.862L34.8717 7.761L35.2227 8.086C34.9367 8.06 34.603 8.10333 34.2217 8.216C33.849 8.32866 33.42 8.54966 32.9347 8.879C32.458 9.20833 31.9207 9.69366 31.3227 10.335L31.0627 10.075C31.6867 9.25166 32.263 8.61033 32.7917 8.151C33.3204 7.69166 33.8014 7.371 34.2347 7.189C34.668 7.007 35.0537 6.916 35.3917 6.916C35.7557 6.916 35.981 6.98966 36.0677 7.137C36.163 7.27566 36.1544 7.50966 36.0417 7.839L32.4927 18.057L32.1937 17.654C32.471 17.6973 32.7917 17.6757 33.1557 17.589C33.5284 17.5023 33.9574 17.3117 34.4427 17.017C34.928 16.7223 35.4697 16.2847 36.0677 15.704L36.3147 15.977C35.6907 16.705 35.123 17.277 34.6117 17.693C34.1004 18.109 33.6324 18.4037 33.2077 18.577C32.7917 18.7503 32.4104 18.837 32.0637 18.837C31.639 18.837 31.3834 18.759 31.2967 18.603C31.21 18.4557 31.223 18.2087 31.3357 17.862ZM35.6647 1.23499C35.6647 1.01833 35.7167 0.823328 35.8207 0.649995C35.9247 0.467995 36.0634 0.329328 36.2367 0.233996C36.4187 0.129995 36.6224 0.0779946 36.8477 0.0779946C37.2117 0.0779946 37.4977 0.190661 37.7057 0.415995C37.9224 0.632661 38.0307 0.905661 38.0307 1.23499C38.0307 1.45166 37.983 1.651 37.8877 1.83299C37.7924 2.00633 37.6537 2.145 37.4717 2.249C37.2984 2.35299 37.0904 2.40499 36.8477 2.40499C36.501 2.40499 36.215 2.29233 35.9897 2.06699C35.773 1.84166 35.6647 1.56433 35.6647 1.23499ZM43.9402 -4.41074e-06L38.3242 18.577H37.1282L42.2892 1.482C42.1332 1.41266 41.9556 1.339 41.7562 1.261C41.5656 1.183 41.3532 1.10933 41.1192 1.03999C40.8939 0.961995 40.6556 0.883995 40.4042 0.805995L40.4822 0.597996L43.7062 -4.41074e-06H43.9402ZM40.2352 12.103L40.2742 11.973C41.1842 10.985 41.9946 10.166 42.7052 9.516C43.4159 8.85733 44.0529 8.34166 44.6162 7.969C45.1796 7.58766 45.6866 7.319 46.1372 7.163C46.5879 6.99833 47.0039 6.916 47.3852 6.916C47.8186 6.916 48.1392 7.01566 48.3472 7.215C48.5552 7.41433 48.6592 7.657 48.6592 7.943C48.6592 8.16833 48.6072 8.372 48.5032 8.554C48.4079 8.736 48.2736 8.87466 48.1002 8.97C47.9356 9.06533 47.7492 9.113 47.5412 9.113C47.3939 9.113 47.2769 9.061 47.1902 8.957C47.1036 8.853 47.0169 8.71 46.9302 8.528C46.8436 8.35466 46.7482 8.229 46.6442 8.151C46.5402 8.06433 46.4189 8.021 46.2802 8.021C46.0289 8.021 45.6996 8.12066 45.2922 8.32C44.8849 8.51933 44.4342 8.79666 43.9402 9.152C43.4549 9.49866 42.9522 9.91466 42.4322 10.4C41.9209 10.8767 41.4226 11.401 40.9372 11.973L41.1582 11.375C41.6262 12.7097 42.0292 13.8017 42.3672 14.651C42.7052 15.4917 42.9912 16.1417 43.2252 16.601C43.4679 17.0603 43.6802 17.3767 43.8622 17.55C44.0442 17.7233 44.2046 17.81 44.3432 17.81C44.5339 17.81 44.7549 17.7407 45.0062 17.602C45.2662 17.4547 45.5696 17.225 45.9162 16.913C46.2629 16.5923 46.6616 16.1677 47.1122 15.639L47.3982 15.925C46.8089 16.6877 46.3019 17.277 45.8772 17.693C45.4526 18.109 45.0799 18.3993 44.7592 18.564C44.4472 18.7287 44.1482 18.811 43.8622 18.811C43.6282 18.811 43.4029 18.7287 43.1862 18.564C42.9696 18.3993 42.7269 18.0873 42.4582 17.628C42.1982 17.16 41.8906 16.484 41.5352 15.6C41.1799 14.716 40.7466 13.5503 40.2352 12.103ZM67.7231 17.147L66.8391 17.836L69.5951 14.352H69.9981L68.4251 17.979C67.6885 18.2477 66.8565 18.4557 65.9291 18.603C65.0018 18.759 64.1438 18.837 63.3551 18.837C61.8471 18.837 60.5515 18.5683 59.4681 18.031C58.3848 17.485 57.5528 16.7007 56.9721 15.678C56.3915 14.6553 56.1011 13.4247 56.1011 11.986C56.1011 10.6773 56.2875 9.451 56.6601 8.307C57.0415 7.163 57.5788 6.12733 58.2721 5.2C58.9741 4.27266 59.8018 3.47533 60.7551 2.808C61.7085 2.14066 62.7658 1.62933 63.9271 1.27399C65.0885 0.909995 66.3148 0.727996 67.6061 0.727996C68.1088 0.727996 68.5811 0.749662 69.0231 0.792995C69.4651 0.836329 69.8985 0.909995 70.3231 1.01399C70.7478 1.11799 71.1811 1.25233 71.6231 1.417L70.8041 1.37799L72.1561 0.324995H72.2991L71.6231 6.123H71.2331L70.5441 2.00199L71.3111 2.847C70.6871 2.32699 70.0371 1.96733 69.3611 1.76799C68.6851 1.56 67.9355 1.456 67.1121 1.456C65.9681 1.456 64.9065 1.62933 63.9271 1.97599C62.9478 2.314 62.0681 2.79933 61.2881 3.43199C60.5081 4.056 59.8408 4.797 59.2861 5.655C58.7315 6.513 58.3068 7.462 58.0121 8.502C57.7261 9.542 57.5831 10.6427 57.5831 11.804C57.5831 13.208 57.8215 14.3823 58.2981 15.327C58.7748 16.2717 59.4465 16.9823 60.3131 17.459C61.1798 17.927 62.1851 18.161 63.3291 18.161C64.0571 18.161 64.7981 18.0873 65.5521 17.94C66.3148 17.7927 67.0385 17.5283 67.7231 17.147ZM73.6954 14.859L72.5254 18.577H71.3294L76.4904 1.495C76.3344 1.417 76.1567 1.339 75.9574 1.261C75.7667 1.183 75.5544 1.10933 75.3204 1.03999C75.0951 0.961995 74.8567 0.888329 74.6054 0.818995L74.6834 0.597996L77.9074 -4.41074e-06H78.1414L74.2544 12.844L74.0594 12.883C74.5794 11.869 75.0951 10.9893 75.6064 10.244C76.1177 9.49 76.6247 8.87033 77.1274 8.385C77.6387 7.891 78.1414 7.52266 78.6354 7.28C79.1381 7.03733 79.6364 6.916 80.1304 6.916C80.8064 6.916 81.2874 7.06333 81.5734 7.358C81.8594 7.644 82.0024 8.02966 82.0024 8.515C82.0024 8.79233 81.9591 9.1 81.8724 9.438C81.7857 9.76733 81.6557 10.153 81.4824 10.595L78.5574 18.044L78.3624 17.667C78.6397 17.693 78.9604 17.6627 79.3244 17.576C79.6971 17.4807 80.1217 17.2857 80.5984 16.991C81.0751 16.6963 81.6037 16.2673 82.1844 15.704L82.4444 15.964C81.8204 16.692 81.2484 17.2683 80.7284 17.693C80.2171 18.109 79.7491 18.4037 79.3244 18.577C78.8997 18.7503 78.5141 18.837 78.1674 18.837C77.7254 18.837 77.4567 18.7547 77.3614 18.59C77.2747 18.4253 77.3137 18.1307 77.4784 17.706L80.3644 10.348C80.4944 10.0187 80.5897 9.737 80.6504 9.503C80.7111 9.26033 80.7414 9.05666 80.7414 8.892C80.7414 8.58 80.6504 8.35033 80.4684 8.203C80.2951 8.05566 80.0307 7.982 79.6754 7.982C79.1381 7.982 78.5747 8.17266 77.9854 8.554C77.4047 8.93533 76.8371 9.451 76.2824 10.101C75.7364 10.751 75.2381 11.4877 74.7874 12.311C74.3367 13.1257 73.9727 13.975 73.6954 14.859ZM85.6036 14.859L84.4336 18.577H83.2376L88.3986 1.495C88.2426 1.417 88.0649 1.339 87.8656 1.261C87.6749 1.183 87.4626 1.10933 87.2286 1.03999C87.0033 0.961995 86.7649 0.888329 86.5136 0.818995L86.5916 0.597996L89.8156 -4.41074e-06H90.0496L86.1626 12.844L85.9676 12.883C86.4876 11.869 87.0033 10.9893 87.5146 10.244C88.0259 9.49 88.5329 8.87033 89.0356 8.385C89.5469 7.891 90.0496 7.52266 90.5436 7.28C91.0463 7.03733 91.5446 6.916 92.0386 6.916C92.7146 6.916 93.1956 7.06333 93.4816 7.358C93.7676 7.644 93.9106 8.02966 93.9106 8.515C93.9106 8.79233 93.8673 9.1 93.7806 9.438C93.6939 9.76733 93.5639 10.153 93.3906 10.595L90.4656 18.044L90.2706 17.667C90.5479 17.693 90.8686 17.6627 91.2326 17.576C91.6053 17.4807 92.0299 17.2857 92.5066 16.991C92.9833 16.6963 93.5119 16.2673 94.0926 15.704L94.3526 15.964C93.7286 16.692 93.1566 17.2683 92.6366 17.693C92.1253 18.109 91.6573 18.4037 91.2326 18.577C90.8079 18.7503 90.4223 18.837 90.0756 18.837C89.6336 18.837 89.3649 18.7547 89.2696 18.59C89.1829 18.4253 89.2219 18.1307 89.3866 17.706L92.2726 10.348C92.4026 10.0187 92.4979 9.737 92.5586 9.503C92.6193 9.26033 92.6496 9.05666 92.6496 8.892C92.6496 8.58 92.5586 8.35033 92.3766 8.203C92.2033 8.05566 91.9389 7.982 91.5836 7.982C91.0463 7.982 90.4829 8.17266 89.8936 8.554C89.3129 8.93533 88.7453 9.451 88.1906 10.101C87.6446 10.751 87.1463 11.4877 86.6956 12.311C86.2449 13.1257 85.8809 13.975 85.6036 14.859ZM96.0818 17.862L99.6178 7.761L99.9688 8.086C99.6828 8.06 99.3491 8.10333 98.9678 8.216C98.5951 8.32866 98.1661 8.54966 97.6808 8.879C97.2041 9.20833 96.6668 9.69366 96.0688 10.335L95.8088 10.075C96.4328 9.25166 97.0091 8.61033 97.5378 8.151C98.0665 7.69166 98.5475 7.371 98.9808 7.189C99.4141 7.007 99.7998 6.916 100.138 6.916C100.502 6.916 100.727 6.98966 100.814 7.137C100.909 7.27566 100.9 7.50966 100.788 7.839L97.2388 18.057L96.9398 17.654C97.2171 17.6973 97.5378 17.6757 97.9018 17.589C98.2745 17.5023 98.7035 17.3117 99.1888 17.017C99.6741 16.7223 100.216 16.2847 100.814 15.704L101.061 15.977C100.437 16.705 99.8691 17.277 99.3578 17.693C98.8465 18.109 98.3785 18.4037 97.9538 18.577C97.5378 18.7503 97.1565 18.837 96.8098 18.837C96.3851 18.837 96.1295 18.759 96.0428 18.603C95.9561 18.4557 95.9691 18.2087 96.0818 17.862ZM100.411 1.23499C100.411 1.01833 100.463 0.823328 100.567 0.649995C100.671 0.467995 100.809 0.329328 100.983 0.233996C101.165 0.129995 101.368 0.0779946 101.594 0.0779946C101.958 0.0779946 102.244 0.190661 102.452 0.415995C102.668 0.632661 102.777 0.905661 102.777 1.23499C102.777 1.45166 102.729 1.651 102.634 1.83299C102.538 2.00633 102.4 2.145 102.218 2.249C102.044 2.35299 101.836 2.40499 101.594 2.40499C101.247 2.40499 100.961 2.29233 100.736 2.06699C100.519 1.84166 100.411 1.56433 100.411 1.23499ZM105.241 15.509C105.181 15.717 105.142 15.8947 105.124 16.042C105.107 16.1893 105.098 16.3193 105.098 16.432C105.098 16.9347 105.25 17.3723 105.553 17.745C105.857 18.109 106.307 18.291 106.905 18.291C107.373 18.291 107.854 18.1437 108.348 17.849C108.842 17.5543 109.323 17.1513 109.791 16.64C110.259 16.12 110.675 15.5263 111.039 14.859C111.412 14.183 111.707 13.4637 111.923 12.701C112.14 11.9297 112.248 11.154 112.248 10.374C112.248 9.57666 112.114 8.98733 111.845 8.606C111.585 8.216 111.187 8.021 110.649 8.021C110.242 8.021 109.835 8.13366 109.427 8.359C109.029 8.57566 108.639 8.87466 108.257 9.256C107.885 9.63733 107.534 10.075 107.204 10.569C106.875 11.0543 106.58 11.5743 106.32 12.129C106.069 12.6837 105.861 13.2427 105.696 13.806L105.241 15.509ZM104.058 17.303L104.734 17.342L102.836 24.31L105.072 24.739L104.955 25.077H99.5993L99.7163 24.739L101.614 24.31L106.047 8.177C106.03 8.13366 105.991 8.10333 105.93 8.086C105.878 8.06 105.8 8.047 105.696 8.047C105.393 8.047 105.081 8.13366 104.76 8.307C104.44 8.48033 104.11 8.75766 103.772 9.139C103.443 9.52033 103.101 10.0317 102.745 10.673L102.42 10.53C102.845 9.58533 103.265 8.85733 103.681 8.346C104.097 7.826 104.518 7.462 104.942 7.254C105.376 7.046 105.818 6.942 106.268 6.942C106.494 6.942 106.71 6.96366 106.918 7.007C107.135 7.04166 107.321 7.08933 107.477 7.14999L106.073 12.298L105.93 12.051C106.52 10.8117 107.122 9.815 107.737 9.061C108.361 8.307 108.968 7.761 109.557 7.423C110.155 7.085 110.701 6.916 111.195 6.916C112.019 6.916 112.634 7.18033 113.041 7.709C113.457 8.229 113.665 8.931 113.665 9.815C113.665 10.725 113.54 11.6177 113.288 12.493C113.037 13.3683 112.69 14.1917 112.248 14.963C111.806 15.7257 111.291 16.3973 110.701 16.978C110.121 17.5587 109.497 18.0137 108.829 18.343C108.162 18.6723 107.482 18.837 106.788 18.837C106.112 18.837 105.527 18.6983 105.033 18.421C104.539 18.1437 104.214 17.771 104.058 17.303ZM120.735 17.836L122.204 13.455H122.425C121.862 14.339 121.32 15.119 120.8 15.795C120.28 16.4623 119.778 17.0213 119.292 17.472C118.816 17.9227 118.361 18.2607 117.927 18.486C117.494 18.7113 117.087 18.824 116.705 18.824C116.22 18.824 115.813 18.733 115.483 18.551C115.154 18.3603 114.907 18.0873 114.742 17.732C114.586 17.368 114.508 16.926 114.508 16.406C114.508 15.6693 114.643 14.8807 114.911 14.04C115.189 13.1907 115.57 12.3587 116.055 11.544C116.541 10.7207 117.1 9.971 117.732 9.295C118.374 8.619 119.063 8.08166 119.799 7.683C120.536 7.28433 121.286 7.085 122.048 7.085C122.62 7.085 123.071 7.21066 123.4 7.462C123.738 7.70466 124.029 8.047 124.271 8.489L123.816 8.97C123.678 8.56266 123.478 8.24633 123.218 8.021C122.958 7.787 122.603 7.67 122.152 7.67C121.511 7.67 120.883 7.86933 120.267 8.268C119.652 8.66666 119.08 9.191 118.551 9.841C118.023 10.4823 117.559 11.18 117.16 11.934C116.762 12.688 116.445 13.4333 116.211 14.17C115.986 14.898 115.873 15.5437 115.873 16.107C115.873 16.6357 115.986 17.0387 116.211 17.316C116.445 17.5847 116.792 17.719 117.251 17.719C117.65 17.719 118.096 17.5673 118.59 17.264C119.084 16.9607 119.583 16.5447 120.085 16.016C120.597 15.4787 121.082 14.8503 121.541 14.131C122.001 13.4117 122.395 12.6317 122.724 11.791L123.92 7.93L124.661 7.176H125.376L121.84 18.044L121.567 17.667C121.845 17.7017 122.165 17.6757 122.529 17.589C122.902 17.5023 123.327 17.3117 123.803 17.017C124.28 16.7223 124.813 16.2847 125.402 15.704L125.649 15.99C124.731 17.056 123.925 17.797 123.231 18.213C122.547 18.629 121.944 18.837 121.424 18.837C121.034 18.837 120.792 18.759 120.696 18.603C120.601 18.4557 120.614 18.2 120.735 17.836Z"
        fill="black" />
</svg>