<?xml version="1.0" standalone="no"?>
<!DOCTYPE svg PUBLIC "-//W3C//DTD SVG 20010904//EN"
 "http://www.w3.org/TR/2001/REC-SVG-20010904/DTD/svg10.dtd">
<svg version="1.0" xmlns="http://www.w3.org/2000/svg"
 width="1638.000000pt" height="403.000000pt" viewBox="0 0 1638.000000 403.000000"
 preserveAspectRatio="xMidYMid meet">

<g transform="translate(0.000000,403.000000) scale(0.100000,-0.100000)"
fill="#000000" stroke="none">
<path d="M0 2015 l0 -2015 3365 0 3365 0 0 804 0 804 -60 10 c-72 13 -151 54
-187 97 -100 117 -100 293 0 410 36 43 115 84 187 97 l60 10 0 899 0 899
-3365 0 -3365 0 0 -2015z m5471 1404 c114 -32 185 -74 274 -164 158 -158 243
-390 292 -795 25 -209 25 -711 -1 -905 -46 -360 -156 -624 -318 -770 -69 -62
-135 -99 -233 -132 -71 -23 -97 -26 -220 -27 -162 -1 -215 9 -331 65 -257 122
-406 417 -458 911 -23 209 -28 446 -17 653 30 513 125 820 310 1006 100 99
222 159 366 179 89 13 251 3 336 -21z m-3762 -44 c287 -65 455 -220 535 -497
37 -127 49 -256 43 -446 -6 -203 -31 -313 -103 -454 -67 -130 -192 -256 -314
-316 -114 -56 -220 -82 -362 -89 l-118 -6 0 -449 0 -448 -262 2 -263 3 -3
1350 c-1 743 0 1356 3 1364 8 21 742 10 844 -14z m1841 -3 c231 -49 379 -140
481 -296 77 -118 110 -249 111 -441 0 -239 -57 -400 -192 -536 -59 -61 -92
-85 -157 -115 -45 -22 -83 -43 -83 -48 0 -4 108 -288 240 -630 132 -342 240
-625 240 -629 0 -4 -122 -6 -272 -5 l-271 3 -230 643 c-215 600 -232 642 -254
642 l-23 0 -2 -642 -3 -643 -257 -3 -258 -2 0 1366 0 1366 418 -5 c364 -5 429
-8 512 -25z"/>
<path d="M5174 3011 c-132 -81 -174 -313 -174 -962 0 -632 42 -871 169 -956
44 -30 122 -31 167 -4 133 81 174 312 174 965 0 554 -30 781 -120 905 -16 22
-43 47 -59 56 -42 21 -119 19 -157 -4z"/>
<path d="M1390 2491 l0 -501 45 0 c75 0 148 34 204 96 85 93 115 203 115 419
-1 147 -15 229 -55 307 -49 97 -147 164 -253 175 l-56 6 0 -502z"/>
<path d="M3140 2610 l0 -380 78 0 c91 0 160 17 232 56 63 34 105 80 139 154
23 50 26 67 26 175 0 104 -3 127 -23 170 -59 129 -202 204 -389 205 l-63 0 0
-380z"/>
<path d="M14290 3080 l0 -400 210 0 210 0 0 -1005 0 -1005 263 2 262 3 3 1003
2 1002 265 0 c157 0 265 4 265 9 0 11 -158 746 -166 774 -5 16 -45 17 -660 17
l-654 0 0 -400z"/>
<path d="M7931 3439 c-245 -48 -425 -200 -532 -449 -94 -222 -136 -469 -146
-870 -13 -525 57 -930 203 -1171 49 -82 153 -191 224 -234 99 -60 198 -87 341
-93 162 -6 260 13 387 74 227 110 391 360 437 666 l7 44 -239 82 c-131 45
-242 82 -245 82 -3 0 -9 -28 -12 -61 -10 -85 -50 -237 -76 -290 -57 -114 -115
-154 -215 -147 -134 8 -203 118 -241 382 -21 149 -31 766 -15 972 32 428 107
579 286 579 139 -1 230 -119 251 -329 4 -35 10 -69 13 -75 5 -8 85 15 246 69
131 44 241 82 243 84 6 7 -45 190 -72 256 -92 226 -269 380 -488 424 -83 17
-282 20 -357 5z"/>
<path d="M9160 2035 l0 -1365 260 0 260 0 0 640 0 640 24 0 c15 0 27 -7 31
-17 3 -10 106 -297 228 -638 l222 -620 273 -3 c198 -2 272 1 272 9 0 6 -108
292 -241 636 -132 343 -239 625 -237 626 1 1 37 18 78 38 167 81 278 221 332
418 31 111 30 362 0 476 -53 198 -162 335 -333 419 -184 90 -303 106 -810 106
l-359 0 0 -1365z m748 931 c104 -28 183 -93 226 -185 18 -39 21 -65 21 -166 0
-109 -2 -125 -26 -176 -63 -135 -197 -209 -376 -209 l-73 0 0 381 0 382 88 -6
c48 -4 111 -13 140 -21z"/>
<path d="M11486 3383 c-3 -10 -140 -612 -305 -1338 -165 -726 -302 -1332 -306
-1347 l-7 -28 265 0 c244 0 266 1 271 18 2 9 17 78 31 152 15 74 33 165 42
202 l15 68 268 0 268 0 5 -23 c3 -12 20 -111 38 -219 l33 -198 279 0 280 0 -6
28 c-10 49 -587 2654 -593 2679 l-6 23 -283 0 c-261 0 -284 -1 -289 -17z m298
-510 c13 -242 37 -459 102 -897 35 -241 64 -440 64 -442 0 -2 -86 -4 -191 -4
l-191 0 6 33 c3 17 32 223 65 457 56 393 81 618 96 845 8 114 12 135 29 135
10 0 15 -31 20 -127z"/>
<path d="M12950 2035 l0 -1365 265 0 265 0 0 610 0 610 308 2 307 3 3 213 2
212 -310 0 -310 0 0 325 0 325 310 0 310 0 0 215 0 215 -575 0 -575 0 0 -1365z"/>
</g>
</svg>
