<?xml version="1.0" encoding="UTF-8"?> <svg xmlns="http://www.w3.org/2000/svg" width="110" height="42" viewBox="0 0 110 42" fill="none"><path d="M0.00742639 20.0973C0.148619 15.3542 1.91508 10.8033 5.01141 7.20569C7.1172 4.82318 9.72949 2.94142 12.6571 1.69816C15.5846 0.454905 18.7533 -0.118373 21.9313 0.0202957C28.2864 0.352765 34.1526 3.52818 38.7085 10.9375C35.4766 8.4745 30.8121 4.70878 26.7451 4.05063C22.6599 3.35218 18.4582 3.96253 14.741 5.7944C12.3839 7.01378 10.345 8.76754 8.7876 10.9154C7.23017 13.0632 6.19738 15.5455 5.77185 18.1636C5.40707 20.7773 5.66661 23.4401 6.52926 25.9343C7.39191 28.4286 8.83315 30.6833 10.7351 32.514C9.53011 31.0931 8.63925 29.4338 8.12089 27.6447C7.60254 25.8557 7.4684 23.9773 7.72727 22.1329C8.01982 20.2847 8.69585 18.5182 9.71195 16.9466C10.728 15.3749 12.0618 14.033 13.6275 13.0069C16.3876 11.1873 19.7474 10.5109 22.9972 11.1207C20.5173 11.1968 18.1188 12.023 16.1186 13.49C14.1184 14.9571 12.6105 16.996 11.7943 19.3374C11.1073 21.6959 11.1723 24.2097 11.9802 26.5297C12.7881 28.8496 14.2988 30.8606 16.3026 32.2833C14.702 29.9658 13.9141 27.184 14.062 24.3719C14.1541 22.9691 14.5621 21.6051 15.2558 20.382C15.9495 19.1589 16.9108 18.1083 18.0679 17.3087C17.097 18.7851 16.5032 20.4769 16.3387 22.2359C16.1741 23.9949 16.4438 25.7674 17.1242 27.3981C17.9254 29.264 19.4191 31.001 21.4492 31.4691C22.6713 31.6868 23.9311 31.4657 25.0058 30.8449C26.0805 30.224 26.901 29.2435 27.3222 28.0766C27.6074 27.2285 27.6753 26.3193 27.9401 25.4643C28.0433 25.0235 28.2446 24.6115 28.5291 24.2591C28.8136 23.9067 29.1739 23.6229 29.5832 23.4288C29.3999 24.7248 30.0585 25.9732 30.4591 27.2285C31.0361 29.0424 31.0926 30.9817 30.622 32.8261C30.0773 34.6954 29.0663 36.3958 27.6839 37.7677C26.3016 39.1397 24.5931 40.1382 22.7189 40.6697C22.4201 40.7579 22.1146 40.8393 21.809 40.9004C21.5035 40.9615 21.1912 41.0225 20.8789 41.0632C20.5665 41.1039 20.2542 41.1379 19.9419 41.1582C19.6296 41.1786 19.3172 41.1582 18.9981 41.1582C18.679 41.1582 18.3735 41.1582 18.0611 41.1243C17.7488 41.0904 17.4297 41.0632 17.1174 41.0225C16.8051 40.9818 16.4995 40.9207 16.1872 40.8597C15.8749 40.7986 15.5761 40.7172 15.2706 40.6358C14.9651 40.5544 14.6663 40.4594 14.3676 40.3508C14.0688 40.2422 13.7769 40.1337 13.4849 40.0115C13.193 39.8894 12.9078 39.7605 12.6294 39.618C12.351 39.4755 12.0727 39.3195 11.8011 39.1634C11.6929 39.1014 11.5763 39.0557 11.4548 39.0277C11.3503 39.0119 11.2478 38.9846 11.1493 38.9463C11.0146 38.8852 10.8832 38.8173 10.7555 38.7427L10.3888 38.5256L9.66912 38.071C9.43148 37.915 9.19384 37.7521 8.99015 37.5893C8.78646 37.4264 8.52846 37.2568 8.31119 37.0804C8.09392 36.904 7.86986 36.7276 7.63222 36.5512C7.39458 36.3747 7.20447 36.178 6.99399 35.988L6.37613 35.4113C6.17923 35.2077 5.97554 35.0109 5.78543 34.8006C5.59532 34.5903 5.40521 34.3867 5.2151 34.1764C5.02499 33.966 4.84846 33.7489 4.67193 33.4979C4.49539 33.2468 4.32565 33.0568 4.15591 32.8194C3.98617 32.5819 3.82322 32.3715 3.66706 32.1409C3.51089 31.9102 3.34794 31.6795 3.19857 31.4623C3.0492 31.2452 2.90661 30.9806 2.76403 30.7431L2.35665 30.0036C2.22765 29.7593 2.10543 29.5082 1.98322 29.2572C1.861 29.0062 1.73879 28.789 1.63016 28.5176C1.52152 28.2462 1.41289 28.002 1.31104 27.7441C1.2092 27.4863 1.12093 27.2149 1.03267 26.9503C0.9444 26.6857 0.862924 26.421 0.781448 26.1564C0.699972 25.8918 0.632076 25.6136 0.564179 25.3422C0.496282 25.0708 0.448755 24.8537 0.394437 24.5959C0.0961232 23.1157 -0.0337057 21.6066 0.00742639 20.0973Z" fill="#D5AB5B"></path><path d="M36.8086 36.1508V18.1907H45.1667V21.1354H41.4256V25.2404H44.8204V28.3004H41.4256V36.1508H36.8086Z" fill="#D5AB5B"></path><path d="M55.5011 36.0423C53.7276 36.5603 51.8428 36.5603 50.0693 36.0423C49.354 35.8279 48.7123 35.4192 48.2157 34.8617C47.7679 34.3197 47.4414 33.6881 47.2584 33.0094C47.0491 32.1848 46.951 31.3359 46.9665 30.4854V23.8563C46.9508 23.008 47.049 22.1614 47.2584 21.3391C47.4384 20.6592 47.7652 20.027 48.2157 19.4867C48.7072 18.9469 49.3361 18.5506 50.0354 18.3401C51.8074 17.8121 53.6951 17.8121 55.4671 18.3401C56.1644 18.5642 56.7883 18.972 57.2732 19.5207C57.7305 20.0584 58.0622 20.6911 58.2441 21.373C58.4592 22.1943 58.5598 23.0414 58.5428 23.8903V30.4854C58.5598 31.3364 58.4593 32.1858 58.2441 33.0094C58.0592 33.6901 57.7279 34.3223 57.2732 34.8617C56.7977 35.4053 56.1861 35.8128 55.5011 36.0423ZM52.7852 33.3894C53.0001 33.4014 53.2135 33.3469 53.3963 33.2333C53.5591 33.1231 53.679 32.9601 53.7357 32.7719C53.7967 32.5934 53.8399 32.4093 53.8647 32.2223C53.8766 32.0167 53.8766 31.8105 53.8647 31.6049V22.73C53.8768 22.5244 53.8768 22.3182 53.8647 22.1126C53.8407 21.9254 53.7975 21.7413 53.7357 21.563C53.6753 21.3785 53.5561 21.2188 53.3963 21.1084C53.2122 20.9979 52.9998 20.9436 52.7852 20.9523C52.6055 20.9477 52.4277 20.9898 52.2692 21.0745C52.1419 21.1371 52.0323 21.2303 51.9501 21.3459C51.866 21.4776 51.8105 21.6256 51.7871 21.7801C51.7527 21.9296 51.73 22.0816 51.7192 22.2347V32.0934C51.7295 32.2465 51.7522 32.3986 51.7871 32.548C51.808 32.7032 51.8637 32.8516 51.9501 32.9823C52.0314 33.102 52.141 33.1998 52.2692 33.2672C52.4217 33.3485 52.592 33.3905 52.7648 33.3894H52.7852Z" fill="#D5AB5B"></path><path d="M60.4375 36.1508V18.1907H65.0069V25.2947H67.3426V18.1907H71.9188V36.1508H67.3086V28.4497H64.973V36.1508H60.4375Z" fill="#D5AB5B"></path><path d="M82.2181 36.0423C80.4446 36.5603 78.5599 36.5603 76.7864 36.0423C76.094 35.816 75.4751 35.4083 74.9939 34.8617C74.5388 34.3216 74.2053 33.6898 74.0162 33.0094C73.807 32.1848 73.7088 31.3359 73.7243 30.4854V23.8563C73.7086 23.008 73.8068 22.1614 74.0162 21.3391C74.1962 20.6592 74.523 20.027 74.9736 19.4867C75.4494 18.9575 76.0557 18.5622 76.7321 18.3401C78.5041 17.8121 80.3918 17.8121 82.1638 18.3401C82.8611 18.5642 83.485 18.972 83.9699 19.5207C84.4272 20.0584 84.7589 20.6911 84.9408 21.373C85.1559 22.1943 85.2565 23.0414 85.2395 23.8903V30.4854C85.2565 31.3364 85.156 32.1858 84.9408 33.0094C84.7559 33.6901 84.4246 34.3223 83.9699 34.8617C83.5 35.4024 82.8958 35.8096 82.2181 36.0423ZM79.5023 33.3894C79.7181 33.4145 79.9365 33.3718 80.1269 33.2672C80.2898 33.157 80.4097 32.9941 80.4664 32.8059C80.5274 32.6273 80.5706 32.4432 80.5954 32.2563C80.6073 32.0506 80.6073 31.8445 80.5954 31.6388V22.73C80.6075 22.5244 80.6075 22.3182 80.5954 22.1126C80.5714 21.9254 80.5281 21.7413 80.4664 21.563C80.406 21.3785 80.2867 21.2188 80.1269 21.1084C79.9428 20.9979 79.7304 20.9436 79.5158 20.9523C79.3362 20.9477 79.1584 20.9898 78.9998 21.0745C78.8726 21.1371 78.7629 21.2303 78.6807 21.3459C78.5967 21.4776 78.5412 21.6256 78.5178 21.7801C78.4834 21.9296 78.4607 22.0816 78.4499 22.2347V32.0934C78.4602 32.2465 78.4829 32.3986 78.5178 32.548C78.5386 32.7032 78.5943 32.8516 78.6807 32.9823C78.7621 33.102 78.8717 33.1998 78.9998 33.2672C79.1483 33.3464 79.3137 33.3883 79.4819 33.3894H79.5023Z" fill="#D5AB5B"></path><path d="M88.4376 36.151L86.4414 18.1909H90.3115L91.1738 27.941L92.2534 18.1909H95.2544L96.4222 27.8392L97.2981 18.1841H101.175L99.1381 36.1442H95.0643L93.7607 26.0073L92.5793 36.1442L88.4376 36.151Z" fill="#D5AB5B"></path><path d="M105.926 13.3868V14.9474H105.484V11.1545H106.53C106.899 11.1246 107.268 11.2203 107.576 11.4259C107.691 11.5248 107.781 11.6495 107.839 11.7898C107.897 11.9301 107.92 12.0821 107.908 12.2334C107.918 12.4664 107.847 12.6957 107.708 12.8824C107.568 13.0691 107.368 13.2018 107.141 13.2579L108.193 14.9474H107.664L106.74 13.3868H105.926ZM105.926 13.0069H106.537C106.778 13.0246 107.018 12.9574 107.216 12.8169C107.292 12.7468 107.351 12.6603 107.389 12.5639C107.427 12.4674 107.442 12.3637 107.433 12.2605C107.44 12.1579 107.423 12.0551 107.384 11.9599C107.345 11.8647 107.286 11.7796 107.209 11.7109C106.993 11.5856 106.745 11.5288 106.496 11.5481H105.926V13.0069Z" fill="#D5AB5B"></path><path d="M106.841 16.2232C108.584 16.2232 109.998 14.8106 109.998 13.0681C109.998 11.3257 108.584 9.91309 106.841 9.91309C105.097 9.91309 103.684 11.3257 103.684 13.0681C103.684 14.8106 105.097 16.2232 106.841 16.2232Z" fill="#D5AB5B"></path></svg> 