<svg xmlns="http://www.w3.org/2000/svg" xmlns:xlink="http://www.w3.org/1999/xlink" width="500" zoomAndPan="magnify" viewBox="0 0 375 374.999991" height="500" preserveAspectRatio="xMidYMid meet" version="1.0"><defs><g/><clipPath id="eea32f9b1d"><rect x="0" width="167" y="0" height="375"/></clipPath><clipPath id="48202720ed"><path d="M 0.640625 1 L 332 1 L 332 120 L 0.640625 120 Z M 0.640625 1 " clip-rule="nonzero"/></clipPath><clipPath id="3fe5a71a9b"><rect x="0" width="167" y="0" height="375"/></clipPath><clipPath id="f8156dbc26"><path d="M 69.476562 61.769531 L 263.117188 61.769531 L 263.117188 82.703125 L 69.476562 82.703125 Z M 69.476562 61.769531 " clip-rule="nonzero"/></clipPath><clipPath id="8a10c2f3f6"><path d="M 0.476562 0.769531 L 194.117188 0.769531 L 194.117188 21.703125 L 0.476562 21.703125 Z M 0.476562 0.769531 " clip-rule="nonzero"/></clipPath><clipPath id="1467a297b4"><rect x="0" width="195" y="0" height="22"/></clipPath><clipPath id="c0f2c98171"><path d="M 69.476562 341.683594 L 263.117188 341.683594 L 263.117188 362.617188 L 69.476562 362.617188 Z M 69.476562 341.683594 " clip-rule="nonzero"/></clipPath><clipPath id="69257a823c"><path d="M 0.476562 0.683594 L 194.117188 0.683594 L 194.117188 21.617188 L 0.476562 21.617188 Z M 0.476562 0.683594 " clip-rule="nonzero"/></clipPath><clipPath id="02ff9ab9d6"><rect x="0" width="195" y="0" height="22"/></clipPath><clipPath id="6ff10248de"><path d="M 79.386719 23.652344 L 244.898438 23.652344 L 244.898438 90.0625 L 79.386719 90.0625 Z M 79.386719 23.652344 " clip-rule="nonzero"/></clipPath><clipPath id="ef2c919662"><path d="M 162.019531 23.652344 L 244.648438 90.0625 L 79.386719 90.0625 Z M 162.019531 23.652344 " clip-rule="nonzero"/></clipPath><clipPath id="bfab25fb1c"><path d="M 0.386719 0.652344 L 165.679688 0.652344 L 165.679688 67.0625 L 0.386719 67.0625 Z M 0.386719 0.652344 " clip-rule="nonzero"/></clipPath><clipPath id="13892b9e1c"><path d="M 83.019531 0.652344 L 165.648438 67.0625 L 0.386719 67.0625 Z M 83.019531 0.652344 " clip-rule="nonzero"/></clipPath><clipPath id="abcf6e0b1f"><rect x="0" width="166" y="0" height="68"/></clipPath><clipPath id="0055d3dba6"><path d="M 51.011719 94.707031 L 87.945312 94.707031 L 87.945312 362.617188 L 51.011719 362.617188 Z M 51.011719 94.707031 " clip-rule="nonzero"/></clipPath><clipPath id="6f2d5ac675"><path d="M 0.0117188 0.707031 L 36.945312 0.707031 L 36.945312 268.617188 L 0.0117188 268.617188 Z M 0.0117188 0.707031 " clip-rule="nonzero"/></clipPath><clipPath id="05f40458db"><rect x="0" width="37" y="0" height="269"/></clipPath><clipPath id="cc31968b24"><path d="M 244.648438 94.707031 L 281.582031 94.707031 L 281.582031 362.617188 L 244.648438 362.617188 Z M 244.648438 94.707031 " clip-rule="nonzero"/></clipPath><clipPath id="87f73b30ac"><path d="M 0.648438 0.707031 L 37.582031 0.707031 L 37.582031 268.617188 L 0.648438 268.617188 Z M 0.648438 0.707031 " clip-rule="nonzero"/></clipPath><clipPath id="094a9c8048"><rect x="0" width="38" y="0" height="269"/></clipPath><clipPath id="4170bdf660"><path d="M 50.96875 344.414062 L 281.582031 344.414062 L 281.582031 374.097656 L 50.96875 374.097656 Z M 50.96875 344.414062 " clip-rule="nonzero"/></clipPath><clipPath id="10c7211937"><path d="M 0.96875 0.414062 L 231.582031 0.414062 L 231.582031 30.097656 L 0.96875 30.097656 Z M 0.96875 0.414062 " clip-rule="nonzero"/></clipPath><clipPath id="56b8afdf68"><rect x="0" width="232" y="0" height="31"/></clipPath><clipPath id="45f6450ebc"><rect x="0" width="333" y="0" height="375"/></clipPath></defs><g transform="matrix(1, 0, 0, 1, 21, 0)"><g clip-path="url(#45f6450ebc)"><g transform="matrix(1, 0, 0, 1, 41, 0)"><g clip-path="url(#eea32f9b1d)"><g fill="#ffffff" fill-opacity="1"><g transform="translate(1.675214, 358.31715)"><g><path d="M 26.8125 0 L 26.8125 -297.890625 L 79.578125 -297.890625 C 100.578125 -297.890625 116.890625 -291.222656 128.515625 -277.890625 C 140.148438 -264.554688 145.96875 -240.582031 145.96875 -205.96875 L 145.96875 -203.84375 C 145.96875 -160.71875 135.46875 -133.335938 114.46875 -121.703125 L 149.796875 0 L 114.90625 0 L 81.703125 -114.046875 L 60.859375 -114.046875 L 60.859375 0 Z M 112.34375 -199.59375 L 112.34375 -212.359375 C 112.34375 -234.203125 109.4375 -249.378906 103.625 -257.890625 C 97.8125 -266.398438 89.796875 -270.65625 79.578125 -270.65625 L 60.859375 -270.65625 L 60.859375 -140.859375 L 79.578125 -140.859375 C 101.421875 -140.859375 112.34375 -160.4375 112.34375 -199.59375 Z M 112.34375 -199.59375 "/></g></g></g></g></g><g clip-path="url(#48202720ed)"><path fill="#ffffff" d="M 0.59375 105.34375 C 9.601562 119.269531 28.195312 123.253906 42.121094 114.246094 C 84.695312 86.703125 166.234375 33.953125 166.234375 33.953125 C 166.234375 33.953125 247.773438 86.703125 290.34375 114.246094 C 304.273438 123.253906 322.867188 119.269531 331.875 105.34375 C 331.875 105.339844 331.875 105.339844 331.875 105.339844 C 331.875 105.339844 174.390625 3.457031 174.390625 3.457031 C 169.425781 0.246094 163.039062 0.246094 158.078125 3.457031 C 158.078125 3.457031 0.589844 105.339844 0.589844 105.339844 C 0.589844 105.339844 0.589844 105.339844 0.59375 105.34375 Z M 0.59375 105.34375 " fill-opacity="1" fill-rule="evenodd"/></g><g transform="matrix(1, 0, 0, 1, 125, 0)"><g clip-path="url(#3fe5a71a9b)"><g fill="#ffffff" fill-opacity="1"><g transform="translate(165.306084, 75.931912)"><g><path d="M -26.8125 0 L -26.8125 297.890625 L -79.578125 297.890625 C -100.578125 297.890625 -116.890625 291.222656 -128.515625 277.890625 C -140.148438 264.554688 -145.96875 240.582031 -145.96875 205.96875 L -145.96875 203.84375 C -145.96875 160.71875 -135.46875 133.335938 -114.46875 121.703125 L -149.796875 0 L -114.90625 0 L -81.703125 114.046875 L -60.859375 114.046875 L -60.859375 0 Z M -112.34375 199.59375 L -112.34375 212.359375 C -112.34375 234.203125 -109.4375 249.378906 -103.625 257.890625 C -97.8125 266.398438 -89.796875 270.65625 -79.578125 270.65625 L -60.859375 270.65625 L -60.859375 140.859375 L -79.578125 140.859375 C -101.421875 140.859375 -112.34375 160.4375 -112.34375 199.59375 Z M -112.34375 199.59375 "/></g></g></g></g></g><g clip-path="url(#f8156dbc26)"><g transform="matrix(1, 0, 0, 1, 69, 61)"><g clip-path="url(#1467a297b4)"><g clip-path="url(#8a10c2f3f6)"><path fill="#ffffff" d="M 0.476562 0.769531 L 194.113281 0.769531 L 194.113281 21.703125 L 0.476562 21.703125 Z M 0.476562 0.769531 " fill-opacity="1" fill-rule="nonzero"/></g></g></g></g><g clip-path="url(#c0f2c98171)"><g transform="matrix(1, 0, 0, 1, 69, 341)"><g clip-path="url(#02ff9ab9d6)"><g clip-path="url(#69257a823c)"><path fill="#ffffff" d="M 0.476562 0.683594 L 194.113281 0.683594 L 194.113281 21.617188 L 0.476562 21.617188 Z M 0.476562 0.683594 " fill-opacity="1" fill-rule="nonzero"/></g></g></g></g><g clip-path="url(#6ff10248de)"><g clip-path="url(#ef2c919662)"><g transform="matrix(1, 0, 0, 1, 79, 23)"><g clip-path="url(#abcf6e0b1f)"><g clip-path="url(#bfab25fb1c)"><g clip-path="url(#13892b9e1c)"><path fill="#ffffff" d="M 0.386719 0.652344 L 165.640625 0.652344 L 165.640625 67.0625 L 0.386719 67.0625 Z M 0.386719 0.652344 " fill-opacity="1" fill-rule="nonzero"/></g></g></g></g></g></g><g clip-path="url(#0055d3dba6)"><g transform="matrix(1, 0, 0, 1, 51, 94)"><g clip-path="url(#05f40458db)"><g clip-path="url(#6f2d5ac675)"><path fill="#ffffff" d="M 0.0117188 0.707031 L 36.945312 0.707031 L 36.945312 268.617188 L 0.0117188 268.617188 Z M 0.0117188 0.707031 " fill-opacity="1" fill-rule="nonzero"/></g></g></g></g><g clip-path="url(#cc31968b24)"><g transform="matrix(1, 0, 0, 1, 244, 94)"><g clip-path="url(#094a9c8048)"><g clip-path="url(#87f73b30ac)"><path fill="#ffffff" d="M 0.648438 0.707031 L 37.582031 0.707031 L 37.582031 268.617188 L 0.648438 268.617188 Z M 0.648438 0.707031 " fill-opacity="1" fill-rule="nonzero"/></g></g></g></g><g clip-path="url(#4170bdf660)"><g transform="matrix(1, 0, 0, 1, 50, 344)"><g clip-path="url(#56b8afdf68)"><g clip-path="url(#10c7211937)"><path fill="#ffffff" d="M 0.96875 0.414062 L 231.597656 0.414062 L 231.597656 30.097656 L 0.96875 30.097656 Z M 0.96875 0.414062 " fill-opacity="1" fill-rule="nonzero"/></g></g></g></g></g></g></svg>