<?xml version="1.0" encoding="UTF-8"?><svg id="Layer_1" xmlns="http://www.w3.org/2000/svg" viewBox="0 0 1051.63 365.78"><defs><style>.cls-1{fill:#290d02;stroke-width:0px;}</style></defs><path class="cls-1" d="M261.46,310.65s-108.61-160.43-108.61-160.43c-.66-.97,8.38-12.69,9.36-14.12,12.93-18.78,27.7-37.05,43.57-53.76,15.73-16.55,32.61-32.98,54-41.92,9.42-3.94,14.75-5.46,24.85-6.52.71-.07,1.43-.17,2.15-.19v-9.47h-105.38v9.47c5.75,0,11.53-.06,17.25.63,3.76.45,9,.69,11.44,4.08,3.52,4.9-1.31,11.32-4.8,14.64-44.75,42.56-83.82,95.04-106.55,152.74-1.52,3.85-2.98,7.72-4.41,11.6-.61,1.68-1.22,3.37-1.82,5.05V61.61c0-10.63,2.82-17.93,8.47-21.92,5.64-3.99,13.28-5.97,22.91-5.97v-9.47H23.75v9.47c9.63,0,17.26,1.99,22.91,5.97,5.64,3.99,8.47,11.29,8.47,21.92v242.57c0,10.63-2.82,17.93-8.47,21.91-5.66,3.99-13.28,5.98-22.91,5.98v9.46h100.13v-9.46c-9.64,0-17.27-1.99-22.91-5.98-1.03-.73-1.86-1.69-2.71-2.64-10.29-21.58,3-78.69,34.68-138.95l88.07,126.15c4.31,6.31,5.98,10.96,4.98,13.95s-4.16,4.98-9.46,5.98c-5.31.99-13.12,1.49-23.41,1.49v9.46h114.23v-9.46c-10.96,0-18.7-2.82-23.22-4.24-9.12-2.86-16.69-8.54-22.66-17.18Z"/><path class="cls-1" d="M590.87,305.67L508.69,24.25h-103.1v9.47c15.94,0,27.56,1.82,34.86,5.47,7.3,3.66,9.47,10.64,6.48,20.92l-72.22,245.56c-2.99,9.96-8.14,16.86-15.44,20.67-7.31,3.82-16.11,5.73-26.4,5.73v9.46h105.1v-9.46c-14.28,0-24.41-1.82-30.38-5.48-5.98-3.65-7.47-10.62-4.48-20.92l31.72-108.58c23.31,4.93,84,27.71,115.22,105.17l.99,3.4c2.99,10.3,1.32,17.27-4.98,20.92-6.31,3.66-16.44,5.48-30.38,5.48v9.46h116.55v-9.46c-9.96,0-18.6-1.91-25.9-5.73-7.31-3.81-12.45-10.71-15.44-20.67ZM440.27,178.44l36.79-125.9,51.28,175.51c-32.35-33.11-68.85-45.28-88.07-49.61Z"/><path class="cls-1" d="M870.08,306.17c-5.98,7.97-14.28,11.95-24.9,11.95h-112.96V61.61c0-10.63,2.82-17.93,8.47-21.92,5.64-3.99,13.28-5.97,22.91-5.97v-9.47h-102.61v9.47c9.63,0,17.26,1.99,22.91,5.97,5.64,3.99,8.47,11.29,8.47,21.92v242.57c0,10.63-2.82,17.93-8.47,21.91-5.65,3.99-13.28,5.98-22.91,5.98v9.46h215.57l4.48-16.43,12.45-49.31-8.96-1.99c-3.66,13.62-8.47,24.41-14.45,32.38Z"/><path class="cls-1" d="M1002.22,39.69c6.14-3.99,14.69-5.97,25.65-5.97v-9.47h-109.58v9.47c10.96,0,19.5,1.99,25.65,5.97,6.14,3.99,9.22,11.29,9.22,21.92v242.57c0,10.63-3.07,17.93-9.22,21.91-6.15,3.99-14.69,5.98-25.65,5.98v9.46h109.58v-9.46c-10.96,0-19.51-1.99-25.65-5.98-6.15-3.99-9.21-11.28-9.21-21.91V61.61c0-10.63,3.07-17.93,9.21-21.92Z"/></svg>