<?xml version="1.0" encoding="UTF-8"?>
<svg version="1.1" xmlns="http://www.w3.org/2000/svg" width="666" height="196">
    <path
        d="M0 0 C219.78 0 439.56 0 666 0 C666 64.68 666 129.36 666 196 C446.22 196 226.44 196 0 196 C0 131.32 0 66.64 0 0 Z "
        fill="#00000000" transform="translate(0,0)" />
    <path
        d="M0 0 C2.16672906 1.60924174 4.12767935 3.20460495 6.125 5 C7.28184593 6.00992404 8.43940895 7.0190272 9.59765625 8.02734375 C10.1714502 8.53120605 10.74524414 9.03506836 11.33642578 9.55419922 C13.70226558 11.61033413 16.12853707 13.58777536 18.5625 15.5625 C24.4150123 20.32737727 30.20986016 25.15972603 36 30 C35.25 34.75 35.25 34.75 33 37 C30.37060547 37.31884766 30.37060547 37.31884766 26.8671875 37.4140625 C26.19919128 37.43356461 25.53119507 37.45306671 24.84295654 37.47315979 C22.52043514 37.53570569 20.1979479 37.58123263 17.875 37.625 C17.06117859 37.64301666 16.24735718 37.66103333 15.40887451 37.67959595 C-5.25835083 38.12830934 -25.93572364 38.13928616 -46.60695648 38.1807785 C-49.38237425 38.18751791 -52.15776229 38.19763782 -54.9331665 38.20855713 C-59.35828847 38.22520304 -63.78330629 38.23128592 -68.20845795 38.22932243 C-69.86941782 38.23008327 -71.53037978 38.23422999 -73.19132233 38.24185371 C-75.48231722 38.25159658 -77.77296476 38.24889503 -80.06396484 38.24291992 C-81.36006683 38.24434494 -82.65616882 38.24576996 -83.99154663 38.24723816 C-87 38 -87 38 -89 36 C-89.09765625 33.60546875 -89.09765625 33.60546875 -88 31 C-85.44615953 29.49020202 -83.16978842 28.39752847 -80.4375 27.3125 C-79.62869385 26.97492676 -78.8198877 26.63735352 -77.98657227 26.28955078 C-76.22979552 25.55785136 -74.46979386 24.83385789 -72.70703125 24.11669922 C-70.08709235 23.03592716 -67.49613749 21.90458176 -64.90625 20.75390625 C-52.52389363 15.32292929 -39.88841695 10.70564385 -27.11721802 6.28375244 C-25.25336636 5.63831484 -23.39078158 4.98920671 -21.5295105 4.33636475 C-18.89511719 3.41538912 -16.25542891 2.51173333 -13.61328125 1.61328125 C-12.81840302 1.33363022 -12.02352478 1.05397919 -11.20455933 0.76585388 C-7.1496794 -0.58854507 -4.1771588 -1.55746381 0 0 Z "
        fill="#000000" transform="translate(110,96)" />
    <path
        d="M0 0 C11.26293028 -0.08264063 22.52572 -0.13556019 33.78891373 -0.16397476 C36.21502388 -0.17115838 38.6411041 -0.18147382 41.06719971 -0.19247437 C44.91343789 -0.20908054 48.75955525 -0.21512783 52.60582733 -0.21302795 C54.03854699 -0.21374574 55.47126927 -0.21785318 56.90396881 -0.22547913 C58.87100356 -0.23521566 60.83809202 -0.23126125 62.80514526 -0.2265625 C63.91421738 -0.22798752 65.02328949 -0.22941254 66.16596985 -0.23088074 C68.77218628 0.01635742 68.77218628 0.01635742 70.77218628 2.01635742 C70.66061401 4.49829102 70.66061401 4.49829102 69.77218628 7.01635742 C67.95993042 8.32739258 67.95993042 8.32739258 65.55734253 9.30541992 C64.65773804 9.6836792 63.75813354 10.06193848 62.83126831 10.45166016 C61.84239624 10.84426025 60.85352417 11.23686035 59.83468628 11.64135742 C57.70830713 12.52007722 55.58200789 13.39899038 53.45578003 14.27807617 C51.7945813 14.95362549 51.7945813 14.95362549 50.099823 15.64282227 C46.91707672 16.95655158 43.766704 18.3261842 40.61984253 19.72338867 C28.26121302 25.17457694 15.76034891 29.91643744 2.95968628 34.20385742 C2.23573669 34.44836639 1.51178711 34.69287537 0.76589966 34.9447937 C-1.29798715 35.63841236 -3.36538146 36.32005012 -5.43484497 36.99682617 C-6.62569702 37.38765381 -7.81654907 37.77848145 -9.04348755 38.18115234 C-11.98334838 38.95223752 -14.21656347 39.32785464 -17.22781372 39.01635742 C-19.51687622 37.36401367 -19.51687622 37.36401367 -21.85281372 35.07885742 C-25.32421678 31.79204891 -28.82003145 28.64473858 -32.54031372 25.64135742 C-37.39239237 21.71678026 -42.16166223 17.70519761 -46.90090942 13.64575195 C-49.28066574 11.6171193 -51.62165447 9.75379692 -54.22781372 8.01635742 C-53.6150376 5.05460619 -52.9740885 3.63576959 -51.22781372 1.01635742 C-48.35475388 0.67113801 -45.69125703 0.52671101 -42.80984497 0.50463867 C-41.47068024 0.47750793 -41.47068024 0.47750793 -40.10446167 0.4498291 C-37.08311753 0.39379637 -34.06200394 0.36067271 -31.04031372 0.32885742 C-28.90806287 0.29708264 -26.77582011 0.26476068 -24.64358521 0.23193359 C-16.42932592 0.11692169 -8.21479035 0.06031599 0 0 Z "
        fill="#000000" transform="translate(95.22781372070313,62.983642578125)" />
    <path
        d="M0 0 C4.62 0 9.24 0 14 0 C14 3.3 14 6.6 14 10 C16.64 10 19.28 10 22 10 C22 6.7 22 3.4 22 0 C29.59 0 37.18 0 45 0 C45 3.3 45 6.6 45 10 C48.63 10 52.26 10 56 10 C56 18.25 56 26.5 56 35 C52.37 35 48.74 35 45 35 C45 38.3 45 41.6 45 45 C34.77 45 24.54 45 14 45 C14 51.93 14 58.86 14 66 C9.38 66 4.76 66 0 66 C0 44.22 0 22.44 0 0 Z "
        fill="#000000" transform="translate(596,87)" />
    <path
        d="M0 0 C4.62 0 9.24 0 14 0 C14 3.3 14 6.6 14 10 C16.64 10 19.28 10 22 10 C22 6.7 22 3.4 22 0 C29.59 0 37.18 0 45 0 C45 3.3 45 6.6 45 10 C48.63 10 52.26 10 56 10 C56 18.25 56 26.5 56 35 C52.37 35 48.74 35 45 35 C45 38.3 45 41.6 45 45 C34.77 45 24.54 45 14 45 C14 51.93 14 58.86 14 66 C9.38 66 4.76 66 0 66 C0 44.22 0 22.44 0 0 Z "
        fill="#000000" transform="translate(344,87)" />
    <path
        d="M0 0 C14.85 0 29.7 0 45 0 C45 4.29 45 8.58 45 13 C31.14 13 17.28 13 3 13 C3 15.64 3 18.28 3 21 C13.23 21 23.46 21 34 21 C34 24.3 34 27.6 34 31 C37.63 31 41.26 31 45 31 C45 42.55 45 54.1 45 66 C41.7 66 38.4 66 35 66 C35 69.63 35 73.26 35 77 C23.45 77 11.9 77 0 77 C0 73.37 0 69.74 0 66 C-3.63 66 -7.26 66 -11 66 C-11 61.38 -11 56.76 -11 52 C-6.38 52 -1.76 52 3 52 C3 55.63 3 59.26 3 63 C12.57 63 22.14 63 32 63 C32 53.76 32 44.52 32 35 C21.44 35 10.88 35 0 35 C0 31.37 0 27.74 0 24 C-3.63 24 -7.26 24 -11 24 C-11 19.38 -11 14.76 -11 10 C-7.37 10 -3.74 10 0 10 C0 6.7 0 3.4 0 0 Z "
        fill="#000000" transform="translate(418,66)" />
    <path
        d="M0 0 C11.22 0 22.44 0 34 0 C34 3.3 34 6.6 34 10 C37.63 10 41.26 10 45 10 C45 25.18 45 40.36 45 56 C30.15 56 15.3 56 0 56 C0 52.37 0 48.74 0 45 C-3.63 45 -7.26 45 -11 45 C-11 40.38 -11 35.76 -11 31 C-7.37 31 -3.74 31 0 31 C0 27.7 0 24.4 0 21 C10.56 21 21.12 21 32 21 C32 18.69 32 16.38 32 14 C21.44 14 10.88 14 0 14 C0 9.38 0 4.76 0 0 Z "
        fill="#000000" transform="translate(544,87)" />
    <path
        d="M0 0 C11.22 0 22.44 0 34 0 C34 3.3 34 6.6 34 10 C37.63 10 41.26 10 45 10 C45 25.18 45 40.36 45 56 C30.15 56 15.3 56 0 56 C0 52.37 0 48.74 0 45 C-3.63 45 -7.26 45 -11 45 C-11 40.38 -11 35.76 -11 31 C-7.37 31 -3.74 31 0 31 C0 27.7 0 24.4 0 21 C10.56 21 21.12 21 32 21 C32 18.69 32 16.38 32 14 C21.44 14 10.88 14 0 14 C0 9.38 0 4.76 0 0 Z "
        fill="#000000" transform="translate(292,87)" />
    <path
        d="M0 0 C18.15 0 36.3 0 55 0 C55 7.92 55 15.84 55 24 C51.7 24 48.4 24 45 24 C45 27.63 45 31.26 45 35 C41.37 35 37.74 35 34 35 C34 38.3 34 41.6 34 45 C30.7 45 27.4 45 24 45 C24 48.63 24 52.26 24 56 C20.37 56 16.74 56 13 56 C13 58.31 13 60.62 13 63 C26.86 63 40.72 63 55 63 C55 67.62 55 72.24 55 77 C36.52 77 18.04 77 -1 77 C-1 68.75 -1 60.5 -1 52 C2.63 52 6.26 52 10 52 C10 48.7 10 45.4 10 42 C13.3 42 16.6 42 20 42 C20 38.37 20 34.74 20 31 C23.63 31 27.26 31 31 31 C31 27.7 31 24.4 31 21 C34.63 21 38.26 21 42 21 C41.505 17.535 41.505 17.535 41 14 C20.705 13.505 20.705 13.505 0 13 C0 8.71 0 4.42 0 0 Z "
        fill="#000000" transform="translate(219,66)" />
    <path
        d="M0 0 C4.62 0 9.24 0 14 0 C14 13.86 14 27.72 14 42 C16.64 42 19.28 42 22 42 C22 35.07 22 28.14 22 21 C26.29 21 30.58 21 35 21 C35 27.93 35 34.86 35 42 C37.31 42 39.62 42 42 42 C42 28.14 42 14.28 42 0 C46.62 0 51.24 0 56 0 C56 18.48 56 36.96 56 56 C41.15 56 26.3 56 11 56 C11 52.37 11 48.74 11 45 C7.37 45 3.74 45 0 45 C0 30.15 0 15.3 0 0 Z "
        fill="#000000" transform="translate(470,87)" />
    <path
        d="M0 0 C5.94 0 11.88 0 18 0 C18 5.61 18 11.22 18 17 C8.76 17 -0.48 17 -10 17 C-10 14.69 -10 12.38 -10 10 C-6.7 10 -3.4 10 0 10 C0 6.7 0 3.4 0 0 Z "
        fill="#000000" transform="translate(620,101)" />
    <path
        d="M0 0 C5.94 0 11.88 0 18 0 C18 5.61 18 11.22 18 17 C8.76 17 -0.48 17 -10 17 C-10 14.69 -10 12.38 -10 10 C-6.7 10 -3.4 10 0 10 C0 6.7 0 3.4 0 0 Z "
        fill="#070707" transform="translate(368,101)" />
    <path d="M0 0 C9.57 0 19.14 0 29 0 C29 2.31 29 4.62 29 7 C19.43 7 9.86 7 0 7 C0 4.69 0 2.38 0 0 Z " fill="#101010"
        transform="translate(547,122)" />
    <path d="M0 0 C9.57 0 19.14 0 29 0 C29 2.31 29 4.62 29 7 C19.43 7 9.86 7 0 7 C0 4.69 0 2.38 0 0 Z " fill="#101010"
        transform="translate(295,122)" />
</svg>