<?xml version="1.0" encoding="UTF-8"?> <svg xmlns="http://www.w3.org/2000/svg" width="3125" height="1311" viewBox="0 0 3125 1311" fill="none"><path d="M448 251.867C446.533 254.8 446 706 447.467 710C448.533 712.667 455.333 716.133 467.333 720C472.533 721.6 478.533 723.733 480.667 724.8C482.933 725.733 490.533 728.667 497.733 731.333C510.933 736.133 522.267 740.267 552 751.333C561.2 754.8 574.4 759.6 581.333 762.133C588.267 764.667 595.2 767.333 596.667 768C598.133 768.667 605.333 771.467 612.667 774.133C635.067 782.267 656 790 670 795.2C677.333 798 690 802.667 698 805.6C706.133 808.667 718.667 813.333 726 816C733.333 818.8 745.333 823.2 752.667 825.867C760 828.533 767.867 831.6 770.267 832.8C778.267 836.4 781.733 836.4 790.8 832.667C795.467 830.667 803.2 827.6 808 825.867C816.4 822.933 833.067 816.667 863.333 805.333C871.467 802.267 883.733 797.733 890.667 795.2C897.6 792.667 904.533 790 906 789.333C907.467 788.667 914.4 786 921.333 783.467C943.333 775.6 962.8 768.4 981.333 761.333C991.2 757.6 1004.13 752.667 1010 750.667C1015.87 748.533 1027.33 744.4 1035.33 741.333C1043.47 738.267 1055.73 733.733 1062.67 731.2C1069.6 728.667 1077.2 725.733 1079.33 724.8C1081.6 723.733 1087.6 721.6 1092.67 720C1104.67 716.133 1111.47 712.667 1112.53 710C1112.93 708.8 1113.33 605.6 1113.33 480.667C1113.33 276 1113.07 253.333 1111.2 251.467C1109.33 249.6 1077.33 249.333 779.333 249.333C454.533 249.333 449.467 249.333 448 251.867ZM1090.4 484.133L1090 696.267L1080 700C1074.53 702 1063.07 706.133 1054.67 709.333C1046.27 712.533 1033.33 717.333 1026 720C1018.67 722.8 1005.2 727.733 996 731.2C986.8 734.667 975.2 738.933 970 740.8C964.933 742.533 957.067 745.467 952.667 747.333C948.267 749.067 929.067 756.4 910 763.333C890.933 770.4 871.467 777.733 866.667 779.6C861.867 781.467 854.133 784.4 849.333 786.133C841.2 788.933 832.133 792.4 797.333 805.6C789.6 808.533 781.867 811.067 780 811.067C778.133 811.067 770.133 808.533 762 805.333C754 802.267 741.333 797.467 734 794.667C726.667 792 713.2 786.933 704 783.467C694.8 780 682.533 775.467 676.667 773.333C670.8 771.2 659.467 767.067 651.333 764C629.467 755.733 606.267 747.067 592 741.867C585.067 739.333 578.133 736.8 576.667 736C575.2 735.333 568 732.533 560.667 729.867C553.333 727.2 540.133 722.4 531.333 719.067C522.533 715.867 511.467 711.733 506.667 710C501.867 708.267 491.733 704.533 484 701.6L470 696.133L469.6 484.133L469.333 272H780H1090.67L1090.4 484.133Z" fill="black"></path><path d="M574.4 352.267C572.133 354.533 572 358.133 572 397.733C572 434.533 572.267 441.2 574.133 443.733L576.133 446.667H686.667C785.333 446.667 797.333 446.4 799.2 444.533C801.067 442.8 801.333 436.667 801.333 398.133C801.333 358.4 801.067 353.467 799.067 351.867C797.333 350.267 778.133 350 686.8 350C582.8 349.867 576.667 350 574.4 352.267Z" fill="#D8521D"></path><path d="M825.2 351.733C822.8 353.467 822.667 355.467 822.667 398.667C822.667 442 822.8 444 825.2 445.333C826.933 446.133 854.4 446.667 905.2 446.667C980.933 446.667 982.667 446.667 985.333 444C987.867 441.467 988 439.6 988 398C988 357.6 987.867 354.533 985.467 352.133C983.2 349.867 979.333 349.733 905.467 349.733C842.267 349.867 827.333 350.133 825.2 351.733Z" fill="#D8521D"></path><path d="M573.333 468.8C572.533 470.667 572 490.267 572 514.667C572 551.467 572.267 557.467 574.133 559.2C576 561.067 583.6 561.333 637.867 561.333C684 561.333 699.867 560.933 701.067 559.733C703.333 557.467 703.333 469.2 701.067 466.933C699.867 465.733 683.867 465.333 637.067 465.333H574.667L573.333 468.8Z" fill="#D8521D"></path><path d="M725.6 466.933C724.4 468.133 724 480.267 724 513.333C724 546.4 724.4 558.533 725.6 559.733C726.8 560.933 757.6 561.333 856.267 561.333C982.4 561.333 985.333 561.333 986.667 558.8C987.467 557.067 988 540.267 988 513.333C988 486.4 987.467 469.6 986.667 467.867C985.333 465.333 982.4 465.333 856.267 465.333C757.6 465.333 726.8 465.733 725.6 466.933Z" fill="#D9511E"></path><path d="M574.133 582.933C572.267 585.467 572 592.133 572 628.667C572 665.2 572.267 671.867 574.133 674.4L576.133 677.333H700.8C784.267 677.333 826.4 676.933 828.133 676C830.533 674.667 830.667 672.667 830.667 628.667C830.667 584.667 830.533 582.667 828.133 581.333C826.4 580.4 784.267 580 700.8 580H576.133L574.133 582.933Z" fill="#D8521D"></path><path d="M854.133 582.133C852.267 583.867 852 590 852 628.533C852 669.867 852.133 673.067 854.4 675.067C856.667 677.067 863.2 677.333 920.267 677.333C979.867 677.333 983.733 677.2 985.733 674.933C987.733 672.667 988 667.467 988 628.4C988 587.467 987.867 584.267 985.6 582.267C983.333 580.267 976.8 580 919.6 580C863.733 580 856 580.267 854.133 582.133Z" fill="#D8521D"></path><path d="M586 872.133C576.934 874.133 564.267 881.333 558.934 887.333C546.534 901.467 543.334 916 544.4 956C545.2 985.467 546.267 992 552.8 1003.87C563.2 1023.2 585.334 1032.53 613.067 1029.33C626.667 1027.87 634.8 1024 644.134 1014.67C651.867 1007.07 657.867 994.8 658.934 985.333L659.334 980.667L643.467 980.267C626.8 979.867 624 980.667 624 985.867C624 990.533 618.934 997.333 614 999.467C607.467 1002.13 594.934 1001.87 589.334 998.933C579.467 993.6 576.134 980.8 576 948.133C576 922.4 577.734 913.067 583.467 906.667C588.8 900.8 597.467 898 605.867 899.467C616.934 901.2 620.667 904.933 623.867 916.933L625.467 922.667H641.334C650 922.667 657.467 922.267 657.734 921.6C658.667 920.133 653.6 901.733 650.667 896.133C647.467 889.733 638 881.067 629.734 876.933C618.534 871.2 599.334 869.2 586 872.133Z" fill="black"></path><path d="M311.6 872.933C311.067 873.333 310.667 875.867 310.667 878.533V883.333L299.733 885.733C284.8 889.067 276 893.467 268.933 901.333C258 913.467 254.667 924.8 254.667 950C254.667 975.867 258.667 988.8 270.8 1001.07C278.133 1008.53 292 1015.2 303.6 1016.8L310.533 1017.6L310.933 1023.2L311.333 1028.67L326.4 1029.07L341.333 1029.47V1023.6V1017.73L348.267 1016.8C357.733 1015.47 373.067 1008.93 379.6 1003.33C394.667 990.533 401.333 965.733 397.467 936.8C395.2 920.267 392 912.533 383.067 902.667C374.4 893.067 367.2 889.2 351.733 885.733L341.333 883.333V877.733V872H326.933C318.933 872 312 872.4 311.6 872.933ZM310.667 950.667C310.667 994.267 311.067 992.267 303.067 989.2C297.067 986.933 290.933 980 288.533 972.933C286.933 968.267 286.267 961.6 286.267 950.8C286.267 927.6 289.867 918.133 300.533 913.2C311.333 908.267 310.667 905.733 310.667 950.667ZM349.733 912.533C359.867 916.933 364.933 926.8 366.267 945.333C367.867 968 362.667 983.067 351.6 988.133C340.667 993.067 341.333 995.733 341.333 950.667C341.333 906.533 340.8 908.667 349.733 912.533Z" fill="black"></path><path d="M450 873.6C449.2 876 438.533 911.733 432 934.667C428.933 945.333 424.667 959.733 422.533 966.667C420.4 973.733 417.2 984.533 415.467 990.667C413.733 996.933 410.667 1007.07 408.8 1013.33C403.6 1030.67 402.533 1029.47 422.267 1029.07L439.333 1028.67L443.2 1014.27L447.067 1000H468.8H490.533L492 1005.6C492.667 1008.8 494.4 1015.2 495.733 1020L498 1028.67L515.733 1029.07C529.867 1029.33 533.333 1029.07 533.333 1027.6C533.333 1026.53 532 1021.87 530.533 1017.2C528.933 1012.53 525.6 1001.73 523.2 993.333C517.2 972.267 509.6 946 502 920.667C498.533 908.933 494.133 893.867 492.4 887.333C490.533 880.667 488.4 874.533 487.733 873.6C486.667 872.533 481.2 872 468.4 872C455.333 872 450.4 872.4 450 873.6ZM470.667 916.4C470.667 918 471.867 924.133 473.333 930C476.4 941.867 484 973.6 484 974.267C484 974.533 477.067 974.667 468.533 974.667C453.067 974.667 453.067 974.667 453.867 971.6C454.4 970 457.2 958.4 460.133 946C468.267 912.267 468.4 912 469.6 912.8C470.133 913.2 470.667 914.8 470.667 916.4Z" fill="black"></path><path d="M711.6 874.267C711.2 875.6 708.4 885.067 705.467 895.333C702.533 905.6 697.733 922.133 694.933 932C692 941.867 687.733 956.533 685.467 964.667C683.2 972.667 680.133 982.933 678.667 987.333C675.467 997.333 666.667 1027.6 666.667 1028.67C666.667 1029.07 674.133 1029.33 683.2 1029.33C694.8 1029.33 700.133 1028.8 701.067 1027.6C701.733 1026.8 703.467 1021.2 704.667 1015.33C708.4 998.533 706 999.867 731.733 1000.27L754 1000.67L757.333 1014.67L760.8 1028.67L778.533 1029.07C795.067 1029.33 796.267 1029.2 795.6 1027.07C793.2 1018.93 784.667 990 780 974.667C777.067 964.8 771.867 947.333 768.4 936C765.067 924.667 760.267 908.4 757.733 900C755.2 891.6 752.4 882 751.467 878.667L749.867 872.667L731.067 872.267C714.133 872 712.267 872.133 711.6 874.267ZM734.667 924.933C736.267 932.133 739.6 945.867 742.133 955.467C744.667 965.2 746.667 973.333 746.667 973.867C746.667 974.267 739.733 974.667 731.333 974.667C719.333 974.667 716 974.267 716 972.933C716 971.867 718.4 961.6 721.333 950C724.267 938.4 727.333 925.2 728.133 920.533C728.933 915.867 730.133 912 730.667 912C731.2 912 732.933 917.867 734.667 924.933Z" fill="black"></path><path d="M832.933 902.267C831.467 952 828 978.267 820.8 993.333C818.133 998.933 817.6 999.333 812.267 999.733L806.667 1000.13L806.933 1030.4L807.333 1060.67H821.333H835.333L835.6 1054.67C835.867 1051.33 836.267 1044.27 836.8 1038.93L837.6 1029.33H876.133H914.667V1040.27C914.667 1046.4 915.067 1053.6 915.467 1056.4L916.4 1061.47L930.533 1061.07L944.667 1060.67V1030.67V1000.67L936.4 1000.27L928 999.867V936V872H880.933H833.733L832.933 902.267ZM896 950.667V1000H874H852L853.333 996.8C853.867 995.067 856 986.267 857.867 977.2C861.2 960.8 863.067 944.933 864.667 916.267L865.6 901.333H880.8H896V950.667Z" fill="black"></path><path d="M968 950.8V1029.6L1001.73 1028.93C1021.33 1028.53 1037.6 1027.6 1040.67 1026.67C1056.53 1022.13 1067.87 1012.93 1073.73 1000.27C1076.13 994.933 1076.67 991.467 1076.67 978C1076.67 963.067 1076.4 961.467 1072.8 954.267C1063.6 935.867 1045.6 926.667 1016.27 925.333L999.867 924.667L999.6 898.667L999.333 872.667L983.733 872.267L968 871.867V950.8ZM1034.13 955.867C1042.53 960.533 1045.73 967.333 1045.07 978.8C1044.67 987.067 1044.13 988.4 1040.13 992.533C1034.67 998.133 1027.47 1000 1010.93 1000H999.333V975.867V951.733L1014 952.267C1026.4 952.667 1029.47 953.2 1034.13 955.867Z" fill="black"></path><path d="M1097.33 950.667V1029.47L1113.07 1029.07L1128.67 1028.67V950.667V872.667L1113.07 872.267L1097.33 871.867V950.667Z" fill="black"></path><path d="M1158.67 903.2C1158.67 931.2 1158.93 935.333 1161.47 943.467C1165.2 955.733 1170.67 963.2 1180.13 969.333C1194.13 978.4 1217.33 980 1230.27 972.8C1233.6 970.8 1236.53 969.333 1236.8 969.333C1237.07 969.333 1237.33 982.8 1237.33 999.333V1029.47L1253.07 1029.07L1268.67 1028.67L1269.07 950.267L1269.33 871.867L1253.73 872.267L1238 872.667L1237.6 907.733L1237.33 942.8L1229.73 946.267C1214.27 953.333 1200.93 950.933 1193.73 939.733L1190 934L1189.6 902.933L1189.07 872H1173.87H1158.67V903.2Z" fill="black"></path><path d="M1930.97 448.815C1940.27 467.641 1940.04 467.415 1949.79 467.415C1958.41 467.415 1959.55 466.507 1964.08 458.568C1970.43 447.454 1970.21 447 1963.4 447C1959.55 447 1956.82 448.815 1955.01 452.671C1951.83 459.702 1947.3 459.929 1945.48 453.124C1944.58 449.041 1942.53 447.68 1937.32 447.454C1933.46 447.454 1930.51 447.907 1930.97 448.815Z" fill="black"></path><path d="M1470.05 522.988V571.756H1479.12H1488.2V530.927V490.098H1506.34H1524.49V482.159V474.219H1497.27H1470.05V522.988Z" fill="black"></path><path d="M1545.81 477.168C1545.36 478.756 1545.13 500.305 1545.36 525.256L1546.04 570.622L1554.2 571.302C1558.97 571.756 1563.28 570.849 1564.64 569.034C1566 567.446 1573.48 553.383 1581.42 537.959L1595.94 509.832L1596.62 540.68L1597.3 571.756H1606.15H1615.22V522.761V473.993L1605.69 474.673L1596.39 475.354L1581.88 503.707C1573.71 519.359 1566.22 532.968 1565.09 534.329C1563.96 535.463 1563.05 524.576 1563.05 505.295V474.219H1555.11C1550.57 474.219 1546.49 475.58 1545.81 477.168Z" fill="black"></path><path d="M1642.44 523.214V572.21L1666.94 571.302C1682.82 570.849 1693.02 569.261 1696.2 567.219C1703.46 562.456 1706.63 552.929 1705.5 539.546C1704.36 529.566 1703 526.617 1696.65 521.4C1690.07 515.956 1687.12 515.049 1674.88 515.049H1660.59V502.573V490.097H1680.09H1699.37L1698.69 482.612L1698.01 475.353L1670.34 474.673L1642.44 473.992V523.214ZM1683.27 533.195C1688.71 538.639 1689.17 549.527 1684.18 554.517C1682.13 556.785 1676.69 558.146 1670.57 558.146H1660.59V543.402V528.658H1669.66C1675.78 528.658 1680.32 530.246 1683.27 533.195Z" fill="black"></path><path d="M1729.54 477.168C1729.09 478.756 1728.86 500.305 1729.09 525.256L1729.77 570.622L1738.39 571.302L1746.78 571.983V549.3C1746.78 536.597 1747.46 526.39 1748.6 526.617C1749.5 526.617 1756.76 536.824 1764.7 549.3L1778.99 571.756H1788.97C1794.41 571.756 1798.95 571.302 1798.95 570.622C1798.95 569.941 1791.47 558.373 1782.17 544.99L1765.38 520.493L1781.03 498.944C1789.65 487.149 1796.68 476.941 1796.68 475.807C1796.68 474.9 1792.37 474.219 1787.16 474.219C1777.4 474.219 1777.4 474.446 1763.79 494.634C1756.31 505.749 1749.5 514.822 1748.6 515.049C1747.46 515.049 1746.78 505.749 1746.78 494.634V474.219H1738.84C1734.31 474.219 1730.22 475.58 1729.54 477.168Z" fill="black"></path><path d="M1819.37 523.214V571.983L1827.76 571.302C1837.06 570.622 1838.19 568.807 1862.69 521.854L1869.27 509.378V540.454V571.756H1878.34H1887.42V522.988V474.219H1879.48C1870.18 474.219 1869.72 474.9 1852.26 510.058C1846.13 522.534 1840.01 532.968 1838.65 532.968C1837.29 533.195 1836.61 522.307 1837.06 503.707L1837.74 474.219H1828.67H1819.37V523.214Z" fill="black"></path><path d="M1914.63 522.988V571.756H1923.48H1932.55L1948.66 541.134C1957.51 524.349 1965.22 510.512 1965.44 510.512C1965.9 510.512 1966.13 524.122 1966.13 540.454L1966.35 570.622H1974.97H1983.82V522.988V475.354L1976.79 474.673C1968.17 473.766 1966.58 475.807 1947.3 511.646L1933.92 536.598L1933.23 505.295L1932.55 474.219H1923.71H1914.63V522.988Z" fill="black"></path><path d="M2053 475.807C2052.77 476.941 2052.77 498.49 2052.77 524.122V570.622L2062.07 571.302L2071.37 571.983L2070.69 549.3C2070.24 536.597 2070.69 526.39 2071.6 526.39C2072.28 526.39 2079.54 536.597 2087.25 549.073L2101.77 571.756H2112.43C2118.55 571.756 2123.32 571.302 2123.32 570.622C2123.32 570.168 2115.6 558.827 2106.3 545.671C2097 532.514 2089.29 521.173 2089.29 520.493C2089.29 519.812 2095.42 510.512 2103.13 499.851C2121.5 473.766 2121.5 473.766 2109.48 474.673C2099.73 475.353 2099.27 475.807 2087.02 493.953C2080.22 504.161 2073.64 512.553 2072.28 512.78C2070.92 512.78 2070.24 505.295 2070.69 493.5L2071.37 474.219H2062.3C2057.08 474.219 2053 474.9 2053 475.807Z" fill="black"></path><path d="M2143.73 522.988V571.983L2151.9 571.302C2160.06 570.622 2160.52 570.168 2176.4 540.454L2192.5 510.512L2193.18 541.134L2193.86 571.756H2202.71H2211.78V522.761V473.993L2203.39 474.673C2194.54 475.353 2192.27 478.529 2171.63 518.905C2166.87 527.978 2162.56 535.463 2161.88 535.463C2161.2 535.463 2160.74 521.853 2160.74 505.522V475.353L2152.35 474.673L2143.73 473.993V522.988Z" fill="black"></path><path d="M2240.13 476.941C2239.45 478.529 2239.23 500.305 2239.45 525.256L2240.13 570.622L2248.53 571.302L2256.92 571.983L2257.6 554.29L2258.28 536.597L2269.62 536.371C2284.59 536.144 2289.13 534.556 2297.07 526.163C2302.74 520.266 2303.65 517.544 2303.65 505.975C2303.65 491.685 2299.11 484.2 2286.18 477.395C2278.24 473.312 2241.5 472.858 2240.13 476.941ZM2280.74 493.727C2290.72 503.48 2285.73 518.224 2271.89 520.946C2258.73 523.441 2257.15 521.627 2257.15 504.841V490.097H2267.13C2273.25 490.097 2278.7 491.458 2280.74 493.727Z" fill="black"></path><path d="M2325.2 520.719C2325.2 546.351 2325.2 567.9 2325.2 568.807C2325.2 569.941 2329.28 570.849 2334.27 571.302L2343.57 571.983L2342.89 531.154L2342.21 490.097H2357.63H2372.83V531.154V571.983L2381.9 571.302L2391.2 570.622V522.988V475.353L2358.09 474.673L2325.2 473.993V520.719Z" fill="black"></path><path d="M2420.46 523.214V571.983L2428.86 571.302C2436.8 570.622 2437.93 569.488 2446.32 554.744C2451.09 545.897 2458.57 532.288 2462.65 524.122L2470.37 509.378V540.454V571.756H2479.44H2488.51V522.988V474.219H2480.57C2471.27 474.219 2471.05 474.446 2451.99 511.646L2439.74 535.917L2439.06 505.068L2438.38 474.219H2429.54H2420.46V523.214Z" fill="black"></path><path d="M2513.46 494.634C2513.46 517.771 2516.64 527.751 2525.94 535.01C2532.74 540.454 2550.21 541.814 2556.56 537.732C2559.51 535.917 2560.19 538.185 2561.1 553.156L2562.23 570.622L2570.85 571.302L2579.24 571.983V522.988V473.993L2570.85 474.673L2562.23 475.353L2561.1 497.81C2559.96 520.266 2559.96 520.266 2553.61 522.534C2545.22 525.256 2536.83 521.627 2533.88 513.688C2532.52 510.512 2531.61 500.305 2531.61 491.005V474.219H2522.54H2513.46V494.634Z" fill="black"></path><path d="M1332.14 612.585C1328.05 613.492 1322.61 616.214 1320.11 618.483C1310.81 626.875 1309 633.907 1309 660.9C1309 684.036 1309.45 687.666 1314.22 694.471C1321.7 705.812 1332.59 710.575 1346.88 709.214C1371.6 706.946 1378.18 696.966 1378.18 661.353C1378.18 633.453 1374.78 623.019 1363.89 616.668C1355.95 612.132 1341.66 610.09 1332.14 612.585ZM1353.91 630.505C1360.49 634.588 1363.44 664.756 1358.68 681.314C1355.05 694.924 1338.49 698.1 1330.55 686.758C1325.56 679.5 1325.79 638.217 1331 632.546C1334.86 628.236 1348.47 626.875 1353.91 630.505Z" fill="black"></path><path d="M1726.82 612.585C1718.2 614.627 1711.4 620.298 1706.86 628.917C1702.1 637.99 1702.55 683.129 1707.31 693.11C1712.76 704.905 1720.7 708.988 1737.71 708.988C1754.49 708.988 1762.89 704.678 1768.78 693.563C1774.23 682.902 1773.32 633.907 1767.65 626.422C1758.35 613.946 1742.92 608.502 1726.82 612.585ZM1750.41 633.227C1756.53 640.032 1756.76 682.902 1750.64 689.027C1745.19 694.698 1729.31 694.471 1725.01 688.573C1720.24 682.222 1720.47 636.856 1725.46 632.093C1730.68 626.649 1745.19 627.329 1750.41 633.227Z" fill="black"></path><path d="M1910.78 612.585C1901.02 614.854 1897.17 618.256 1894.22 627.556C1891.04 637.31 1892.63 639.805 1902.16 639.805C1908.28 639.805 1909.87 638.898 1910.55 634.588C1911 630.505 1912.82 629.371 1920.99 628.917C1933.01 628.01 1937.32 631.185 1937.32 641.166C1937.32 649.785 1935.05 651.6 1922.57 653.415C1914.63 654.322 1913.5 655.229 1913.5 660.22C1913.5 665.21 1914.86 666.117 1923.48 667.251C1934.14 668.612 1939.59 673.602 1939.59 681.768C1939.59 689.254 1935.05 691.976 1922.12 691.976C1911.23 691.976 1910.1 691.522 1908.74 686.305C1907.6 681.768 1906.01 680.634 1899.89 680.634C1890.36 680.634 1889.23 682.449 1892.18 692.883C1895.35 704.678 1903.07 708.761 1921.21 708.761C1938.22 708.761 1950.02 703.771 1955.01 694.017C1959.09 686.078 1956.82 672.241 1950.25 664.983L1944.35 659.085L1950.02 652.734C1957.5 643.888 1957.73 628.237 1950.02 620.524C1941.4 611.905 1926.43 608.729 1910.78 612.585Z" fill="black"></path><path d="M2089.29 613.039C2071.6 618.029 2066.61 628.463 2066.61 660.673C2066.61 697.193 2075.23 708.988 2101.77 708.988C2128.08 708.761 2136.93 696.966 2136.93 661.58C2136.93 627.102 2129.44 615.08 2106.3 611.905C2101.31 611.224 2093.6 611.678 2089.29 613.039ZM2113.34 631.639C2117.19 634.588 2117.65 637.763 2117.65 659.993C2117.65 688.8 2115.61 692.883 2101.54 692.883C2087.93 692.883 2084.76 686.759 2084.76 660.446C2084.76 633.907 2087.48 628.463 2100.41 628.463C2104.94 628.463 2110.84 629.824 2113.34 631.639Z" fill="black"></path><path d="M1395.2 620.524V628.463H1406.54H1417.88V668.159V707.854H1426.95H1436.02V668.385V628.69L1448.05 628.01C1459.61 627.329 1459.84 627.102 1460.52 619.844L1461.2 612.585H1428.31H1395.2V620.524Z" fill="black"></path><path d="M1522.22 660.22V707.854H1531.29H1540.59L1539.91 668.159L1539.23 628.463H1555.79H1572.12V668.159V707.854H1581.19H1590.27V660.22V612.585H1556.24H1522.22V660.22Z" fill="black"></path><path d="M1617.49 660.22V707.854H1626.56H1635.63V690.841V673.829H1648.79C1664.67 673.829 1675.33 667.932 1680.09 656.817C1684.63 645.929 1684.18 635.949 1678.73 627.329C1671.7 615.988 1662.17 612.585 1638.13 612.585H1617.49V660.22ZM1660.59 633C1671.25 643.661 1662.85 657.951 1645.84 657.951H1635.63V643.207V628.463H1645.84C1653.1 628.463 1657.41 629.824 1660.59 633Z" fill="black"></path><path d="M1798.95 660.22V707.854H1807.57C1817.1 707.854 1814.83 710.802 1840.69 661.807L1848.85 646.156V677.005V707.854H1857.93H1867V660.22V612.585H1858.61H1849.99L1834.11 642.073C1825.49 658.405 1817.78 671.561 1817.1 671.561C1816.42 671.561 1816.19 658.405 1816.64 642.073L1817.32 612.585H1808.25H1798.95V660.22Z" fill="black"></path><path d="M1980.42 660.446V708.307L2006.5 707.4C2031.45 706.719 2032.81 706.493 2038.71 700.368C2043.93 695.378 2045.06 692.202 2045.06 682.902C2045.06 673.829 2043.93 670.654 2038.48 664.983L2031.91 658.178L2038.03 651.146C2048.69 638.444 2044.61 622.339 2028.96 615.761C2024.42 613.946 2013.31 612.585 2000.83 612.585H1980.42V660.446ZM2023.06 631.185C2026.92 635.041 2026.46 642.073 2021.92 647.063C2019.43 649.785 2015.12 651.146 2008.32 651.146H1998.56V639.805V628.463H2009.45C2015.35 628.463 2021.47 629.597 2023.06 631.185ZM2022.38 670.654C2024.65 673.149 2025.78 677.232 2025.33 682.676L2024.65 690.841L2011.72 691.522L1998.56 692.202V679.5V667.024H2008.54C2014.89 667.024 2020.11 668.385 2022.38 670.654Z" fill="black"></path><path d="M2169.82 636.856C2168 663.168 2161.42 689.254 2155.98 691.295C2153.71 692.202 2152.81 696.739 2152.81 709.215V726H2161.88H2170.95V716.927V707.854H2197.04H2223.12V716.927V726H2232.2H2241.27V708.988C2241.27 692.429 2241.04 691.976 2235.6 691.976H2229.93V652.28V612.585H2200.67H2171.41L2169.82 636.856ZM2211.78 660.219V691.976H2194.77C2185.47 691.976 2177.76 691.749 2177.76 691.295C2177.76 691.068 2179.8 684.717 2182.07 677.232C2184.33 669.746 2187.06 655.683 2187.96 645.929L2189.55 628.463H2200.67H2211.78V660.219Z" fill="black"></path><path d="M2266.22 660.22V707.854H2275.07C2283.23 707.854 2284.14 707.173 2288.68 696.966C2291.17 691.068 2298.43 677.005 2304.78 665.89L2316.12 645.476V676.551V707.854H2325.2H2334.27V660.22V612.585H2325.65C2319.98 612.585 2316.35 613.946 2314.53 616.895C2311.59 621.432 2291.85 658.405 2288 666.344C2286.63 669.293 2285.05 671.561 2284.37 671.561C2283.69 671.561 2283.46 658.405 2283.91 642.073L2284.82 612.585H2275.52H2266.22V660.22Z" fill="black"></path><path d="M2355.14 619.844C2355.82 627.102 2356.04 627.329 2367.84 628.01L2379.64 628.69V668.385V707.854H2388.71H2397.78V668.385V628.69L2409.8 628.01C2421.14 627.329 2421.6 627.102 2421.6 620.524V613.719L2388.03 613.039L2354.46 612.359L2355.14 619.844Z" fill="black"></path><path d="M2445.42 660.22V707.854H2473.77H2502.12V699.915V691.976H2482.84H2463.56V679.5V667.024H2480.57H2497.59V660.22V653.415H2480.57H2463.56V640.939V628.463H2482.84H2502.12V620.524V612.585H2473.77H2445.42V660.22Z" fill="black"></path><path d="M2547.03 648.651C2546.35 680.18 2545.67 685.397 2541.82 689.707C2538.87 692.883 2535.47 694.244 2530.7 693.79C2524.12 693.11 2523.67 693.563 2522.99 701.502L2522.31 710.122H2531.61C2536.6 710.122 2544.31 708.534 2548.85 706.719C2560.64 701.729 2564.05 691.976 2565.18 657.271L2566.09 628.463H2585.37H2604.42L2604.2 658.405C2603.97 674.963 2603.97 692.883 2603.97 698.1L2604.2 707.854H2613.27H2622.34L2621.89 660.673L2621.21 613.719L2584.69 613.039L2547.94 612.585L2547.03 648.651Z" fill="black"></path><path d="M2663.85 617.122C2654.78 622.566 2651.83 628.01 2651.83 639.578C2651.83 648.198 2655.69 660.22 2658.41 660.22C2659.09 660.22 2661.58 661.807 2663.85 663.395C2667.71 666.344 2667.71 666.798 2663.4 674.056C2660.9 678.366 2656.37 687.666 2653.19 694.698L2647.29 707.854H2657.05H2666.57L2675.19 689.707C2682.91 672.922 2684.27 671.561 2690.39 671.561H2697.2V689.707V707.854H2706.27H2715.34V660.22V612.585H2693.34C2675.42 612.585 2669.75 613.493 2663.85 617.122ZM2697.2 642.073V655.683H2687.9C2674.29 655.683 2669.98 652.507 2669.98 642.527C2669.98 631.185 2673.15 628.463 2686.31 628.463H2697.2V642.073Z" fill="black"></path></svg> 