<svg xmlns="http://www.w3.org/2000/svg" xmlns:xlink="http://www.w3.org/1999/xlink" zoomAndPan="magnify"
    preserveAspectRatio="xMidYMid meet" version="1.0" viewBox="5.2 109.98 360.47 133.83">
    <defs>
        <g></g>
        <clipPath id="c4a0aade15">
            <path d="M 14 0.121094 L 75 0.121094 L 75 177 L 14 177 Z M 14 0.121094 " clip-rule="nonzero"></path>
        </clipPath>
        <clipPath id="df9c3db0b9">
            <rect x="0" width="61" y="0" height="177"></rect>
        </clipPath>
        <clipPath id="0faedda3d7">
            <path d="M 0.214844 16.609375 L 119.078125 16.609375 L 119.078125 60 L 0.214844 60 Z M 0.214844 16.609375 "
                clip-rule="nonzero"></path>
        </clipPath>
        <clipPath id="ddc1cd1eee">
            <path d="M 44 13 L 105 13 L 105 188.761719 L 44 188.761719 Z M 44 13 " clip-rule="nonzero"></path>
        </clipPath>
        <clipPath id="77faaee9a4">
            <rect x="0" width="61" y="0" height="176"></rect>
        </clipPath>
        <clipPath id="a9bc35cb52">
            <path
                d="M 24.910156 38.761719 L 94.378906 38.761719 L 94.378906 46.273438 L 24.910156 46.273438 Z M 24.910156 38.761719 "
                clip-rule="nonzero"></path>
        </clipPath>
        <clipPath id="085f7862dc">
            <path
                d="M 0.910156 0.761719 L 70.378906 0.761719 L 70.378906 8.273438 L 0.910156 8.273438 Z M 0.910156 0.761719 "
                clip-rule="nonzero"></path>
        </clipPath>
        <clipPath id="856eea02b3">
            <rect x="0" width="71" y="0" height="9"></rect>
        </clipPath>
        <clipPath id="3f7995a78e">
            <path
                d="M 24.910156 139.183594 L 94.378906 139.183594 L 94.378906 146.691406 L 24.910156 146.691406 Z M 24.910156 139.183594 "
                clip-rule="nonzero"></path>
        </clipPath>
        <clipPath id="cc9f591770">
            <path
                d="M 0.910156 0.183594 L 70.378906 0.183594 L 70.378906 7.691406 L 0.910156 7.691406 Z M 0.910156 0.183594 "
                clip-rule="nonzero"></path>
        </clipPath>
        <clipPath id="708b2648c6">
            <rect x="0" width="71" y="0" height="8"></rect>
        </clipPath>
        <clipPath id="e32f81a9b8">
            <path
                d="M 28.464844 25.085938 L 87.84375 25.085938 L 87.84375 48.910156 L 28.464844 48.910156 Z M 28.464844 25.085938 "
                clip-rule="nonzero"></path>
        </clipPath>
        <clipPath id="cbdda4d377">
            <path d="M 58.109375 25.085938 L 87.753906 48.910156 L 28.464844 48.910156 Z M 58.109375 25.085938 "
                clip-rule="nonzero"></path>
        </clipPath>
        <clipPath id="2886a724a3">
            <path
                d="M 0.464844 0.0859375 L 59.84375 0.0859375 L 59.84375 23.910156 L 0.464844 23.910156 Z M 0.464844 0.0859375 "
                clip-rule="nonzero"></path>
        </clipPath>
        <clipPath id="4ec4806488">
            <path d="M 30.109375 0.0859375 L 59.753906 23.910156 L 0.464844 23.910156 Z M 30.109375 0.0859375 "
                clip-rule="nonzero"></path>
        </clipPath>
        <clipPath id="311b4cb737">
            <rect x="0" width="60" y="0" height="24"></rect>
        </clipPath>
        <clipPath id="788910868a">
            <path
                d="M 18.285156 50.578125 L 31.535156 50.578125 L 31.535156 146.691406 L 18.285156 146.691406 Z M 18.285156 50.578125 "
                clip-rule="nonzero"></path>
        </clipPath>
        <clipPath id="4c0d1a9850">
            <path
                d="M 0.285156 0.578125 L 13.535156 0.578125 L 13.535156 96.691406 L 0.285156 96.691406 Z M 0.285156 0.578125 "
                clip-rule="nonzero"></path>
        </clipPath>
        <clipPath id="25df1b930e">
            <rect x="0" width="14" y="0" height="97"></rect>
        </clipPath>
        <clipPath id="75417bf7dd">
            <path
                d="M 87.753906 50.578125 L 101.003906 50.578125 L 101.003906 146.691406 L 87.753906 146.691406 Z M 87.753906 50.578125 "
                clip-rule="nonzero"></path>
        </clipPath>
        <clipPath id="b79001e72c">
            <path
                d="M 0.753906 0.578125 L 14.003906 0.578125 L 14.003906 96.691406 L 0.753906 96.691406 Z M 0.753906 0.578125 "
                clip-rule="nonzero"></path>
        </clipPath>
        <clipPath id="5030fb0f34">
            <rect x="0" width="15" y="0" height="97"></rect>
        </clipPath>
        <clipPath id="5922f1b614">
            <path
                d="M 18.269531 140.160156 L 101.003906 140.160156 L 101.003906 150.8125 L 18.269531 150.8125 Z M 18.269531 140.160156 "
                clip-rule="nonzero"></path>
        </clipPath>
        <clipPath id="52b895ca00">
            <path
                d="M 0.269531 0.160156 L 83.003906 0.160156 L 83.003906 10.8125 L 0.269531 10.8125 Z M 0.269531 0.160156 "
                clip-rule="nonzero"></path>
        </clipPath>
        <clipPath id="56b17d880b">
            <rect x="0" width="84" y="0" height="11"></rect>
        </clipPath>
        <clipPath id="ccde985758">
            <rect x="0" width="120" y="0" height="189"></rect>
        </clipPath>
        <clipPath id="e1c6de112c">
            <rect x="0" width="231" y="0" height="62"></rect>
        </clipPath>
    </defs>
    <g transform="matrix(1, 0, 0, 1, 5, 93)">
        <g clip-path="url(#ccde985758)">
            <g clip-path="url(#c4a0aade15)">
                <g transform="matrix(1, 0, 0, 1, 14, 0)">
                    <g clip-path="url(#df9c3db0b9)">
                        <g fill="#ff6600" fill-opacity="1">
                            <g transform="translate(1.294078, 145.149395)">
                                <g>
                                    <path
                                        d="M 9.625 0 L 9.625 -106.875 L 28.546875 -106.875 C 36.078125 -106.875 41.925781 -104.476562 46.09375 -99.6875 C 50.269531 -94.90625 52.359375 -86.304688 52.359375 -73.890625 L 52.359375 -73.125 C 52.359375 -57.65625 48.59375 -47.835938 41.0625 -43.671875 L 53.734375 0 L 41.21875 0 L 29.3125 -40.921875 L 21.828125 -40.921875 L 21.828125 0 Z M 40.3125 -71.609375 L 40.3125 -76.1875 C 40.3125 -84.019531 39.265625 -89.460938 37.171875 -92.515625 C 35.085938 -95.566406 32.210938 -97.09375 28.546875 -97.09375 L 21.828125 -97.09375 L 21.828125 -50.53125 L 28.546875 -50.53125 C 36.390625 -50.53125 40.3125 -57.554688 40.3125 -71.609375 Z M 40.3125 -71.609375 ">
                                    </path>
                                </g>
                            </g>
                        </g>
                    </g>
                </g>
            </g>
            <g clip-path="url(#0faedda3d7)">
                <path fill="#ff6600"
                    d="M 0.195312 54.394531 C 3.429688 59.390625 10.097656 60.820312 15.09375 57.585938 C 30.367188 47.707031 59.621094 28.78125 59.621094 28.78125 C 59.621094 28.78125 88.875 47.707031 104.148438 57.585938 C 109.144531 60.820312 115.8125 59.390625 119.046875 54.394531 C 119.046875 54.390625 119.046875 54.390625 119.046875 54.390625 C 119.046875 54.390625 62.546875 17.839844 62.546875 17.839844 C 60.765625 16.691406 58.476562 16.691406 56.695312 17.839844 C 56.695312 17.839844 0.195312 54.390625 0.195312 54.390625 C 0.195312 54.390625 0.195312 54.390625 0.195312 54.394531 Z M 0.195312 54.394531 "
                    fill-opacity="1" fill-rule="evenodd"></path>
            </g>
            <g clip-path="url(#ddc1cd1eee)">
                <g transform="matrix(1, 0, 0, 1, 44, 13)">
                    <g clip-path="url(#77faaee9a4)">
                        <g fill="#ff6600" fill-opacity="1">
                            <g transform="translate(60.132762, 30.842408)">
                                <g>
                                    <path
                                        d="M -9.625 0 L -9.625 106.875 L -28.546875 106.875 C -36.078125 106.875 -41.925781 104.476562 -46.09375 99.6875 C -50.269531 94.90625 -52.359375 86.304688 -52.359375 73.890625 L -52.359375 73.125 C -52.359375 57.65625 -48.59375 47.835938 -41.0625 43.671875 L -53.734375 0 L -41.21875 0 L -29.3125 40.921875 L -21.828125 40.921875 L -21.828125 0 Z M -40.3125 71.609375 L -40.3125 76.1875 C -40.3125 84.019531 -39.265625 89.460938 -37.171875 92.515625 C -35.085938 95.566406 -32.210938 97.09375 -28.546875 97.09375 L -21.828125 97.09375 L -21.828125 50.53125 L -28.546875 50.53125 C -36.390625 50.53125 -40.3125 57.554688 -40.3125 71.609375 Z M -40.3125 71.609375 ">
                                    </path>
                                </g>
                            </g>
                        </g>
                    </g>
                </g>
            </g>
            <g clip-path="url(#a9bc35cb52)">
                <g transform="matrix(1, 0, 0, 1, 24, 38)">
                    <g clip-path="url(#856eea02b3)">
                        <g clip-path="url(#085f7862dc)">
                            <path fill="#ff6600"
                                d="M 0.910156 0.761719 L 70.378906 0.761719 L 70.378906 8.273438 L 0.910156 8.273438 Z M 0.910156 0.761719 "
                                fill-opacity="1" fill-rule="nonzero"></path>
                        </g>
                    </g>
                </g>
            </g>
            <g clip-path="url(#3f7995a78e)">
                <g transform="matrix(1, 0, 0, 1, 24, 139)">
                    <g clip-path="url(#708b2648c6)">
                        <g clip-path="url(#cc9f591770)">
                            <path fill="#ff6600"
                                d="M 0.910156 0.183594 L 70.378906 0.183594 L 70.378906 7.691406 L 0.910156 7.691406 Z M 0.910156 0.183594 "
                                fill-opacity="1" fill-rule="nonzero"></path>
                        </g>
                    </g>
                </g>
            </g>
            <g clip-path="url(#e32f81a9b8)">
                <g clip-path="url(#cbdda4d377)">
                    <g transform="matrix(1, 0, 0, 1, 28, 25)">
                        <g clip-path="url(#311b4cb737)">
                            <g clip-path="url(#2886a724a3)">
                                <g clip-path="url(#4ec4806488)">
                                    <path fill="#ff6600"
                                        d="M 0.464844 0.0859375 L 59.75 0.0859375 L 59.75 23.910156 L 0.464844 23.910156 Z M 0.464844 0.0859375 "
                                        fill-opacity="1" fill-rule="nonzero"></path>
                                </g>
                            </g>
                        </g>
                    </g>
                </g>
            </g>
            <g clip-path="url(#788910868a)">
                <g transform="matrix(1, 0, 0, 1, 18, 50)">
                    <g clip-path="url(#25df1b930e)">
                        <g clip-path="url(#4c0d1a9850)">
                            <path fill="#ff6600"
                                d="M 0.285156 0.578125 L 13.535156 0.578125 L 13.535156 96.691406 L 0.285156 96.691406 Z M 0.285156 0.578125 "
                                fill-opacity="1" fill-rule="nonzero"></path>
                        </g>
                    </g>
                </g>
            </g>
            <g clip-path="url(#75417bf7dd)">
                <g transform="matrix(1, 0, 0, 1, 87, 50)">
                    <g clip-path="url(#5030fb0f34)">
                        <g clip-path="url(#b79001e72c)">
                            <path fill="#ff6600"
                                d="M 0.753906 0.578125 L 14.003906 0.578125 L 14.003906 96.691406 L 0.753906 96.691406 Z M 0.753906 0.578125 "
                                fill-opacity="1" fill-rule="nonzero"></path>
                        </g>
                    </g>
                </g>
            </g>
            <g clip-path="url(#5922f1b614)">
                <g transform="matrix(1, 0, 0, 1, 18, 140)">
                    <g clip-path="url(#56b17d880b)">
                        <g clip-path="url(#52b895ca00)">
                            <path fill="#ff6600"
                                d="M 0.269531 0.160156 L 83.007812 0.160156 L 83.007812 10.8125 L 0.269531 10.8125 Z M 0.269531 0.160156 "
                                fill-opacity="1" fill-rule="nonzero"></path>
                        </g>
                    </g>
                </g>
            </g>
        </g>
    </g>
    <g transform="matrix(1, 0, 0, 1, 137, 156)">
        <g clip-path="url(#e1c6de112c)">
            <g fill="#000000" fill-opacity="1">
                <g transform="translate(0.413428, 45.717219)">
                    <g>
                        <path
                            d="M 18.09375 0 L 11.796875 -11.421875 L 10.03125 -11.421875 L 10.03125 0 L 2.671875 0 L 2.671875 -30.234375 L 15.03125 -30.234375 C 17.414062 -30.234375 19.445312 -29.816406 21.125 -28.984375 C 22.8125 -28.160156 24.070312 -27.019531 24.90625 -25.5625 C 25.738281 -24.113281 26.15625 -22.5 26.15625 -20.71875 C 26.15625 -18.707031 25.585938 -16.910156 24.453125 -15.328125 C 23.316406 -13.753906 21.640625 -12.632812 19.421875 -11.96875 L 26.40625 0 Z M 10.03125 -16.625 L 14.609375 -16.625 C 15.953125 -16.625 16.960938 -16.953125 17.640625 -17.609375 C 18.316406 -18.273438 18.65625 -19.210938 18.65625 -20.421875 C 18.65625 -21.566406 18.316406 -22.46875 17.640625 -23.125 C 16.960938 -23.789062 15.953125 -24.125 14.609375 -24.125 L 10.03125 -24.125 Z M 10.03125 -16.625 ">
                        </path>
                    </g>
                </g>
            </g>
            <g fill="#000000" fill-opacity="1">
                <g transform="translate(28.498787, 45.717219)">
                    <g>
                        <path
                            d="M 1.203125 -12.0625 C 1.203125 -14.53125 1.664062 -16.695312 2.59375 -18.5625 C 3.53125 -20.425781 4.800781 -21.859375 6.40625 -22.859375 C 8.019531 -23.867188 9.816406 -24.375 11.796875 -24.375 C 13.492188 -24.375 14.976562 -24.03125 16.25 -23.34375 C 17.53125 -22.65625 18.519531 -21.753906 19.21875 -20.640625 L 19.21875 -24.03125 L 26.578125 -24.03125 L 26.578125 0 L 19.21875 0 L 19.21875 -3.40625 C 18.5 -2.28125 17.5 -1.375 16.21875 -0.6875 C 14.9375 0 13.453125 0.34375 11.765625 0.34375 C 9.804688 0.34375 8.019531 -0.164062 6.40625 -1.1875 C 4.800781 -2.207031 3.53125 -3.65625 2.59375 -5.53125 C 1.664062 -7.414062 1.203125 -9.59375 1.203125 -12.0625 Z M 19.21875 -12.015625 C 19.21875 -13.859375 18.707031 -15.3125 17.6875 -16.375 C 16.664062 -17.4375 15.421875 -17.96875 13.953125 -17.96875 C 12.492188 -17.96875 11.253906 -17.441406 10.234375 -16.390625 C 9.210938 -15.335938 8.703125 -13.894531 8.703125 -12.0625 C 8.703125 -10.226562 9.210938 -8.769531 10.234375 -7.6875 C 11.253906 -6.613281 12.492188 -6.078125 13.953125 -6.078125 C 15.421875 -6.078125 16.664062 -6.609375 17.6875 -7.671875 C 18.707031 -8.734375 19.21875 -10.179688 19.21875 -12.015625 Z M 19.21875 -12.015625 ">
                        </path>
                    </g>
                </g>
            </g>
            <g fill="#000000" fill-opacity="1">
                <g transform="translate(57.747188, 45.717219)">
                    <g>
                        <path
                            d="M 10.03125 -20.640625 C 10.75 -21.753906 11.738281 -22.65625 13 -23.34375 C 14.269531 -24.03125 15.753906 -24.375 17.453125 -24.375 C 19.429688 -24.375 21.222656 -23.867188 22.828125 -22.859375 C 24.441406 -21.859375 25.710938 -20.425781 26.640625 -18.5625 C 27.578125 -16.695312 28.046875 -14.53125 28.046875 -12.0625 C 28.046875 -9.59375 27.578125 -7.414062 26.640625 -5.53125 C 25.710938 -3.65625 24.441406 -2.207031 22.828125 -1.1875 C 21.222656 -0.164062 19.429688 0.34375 17.453125 0.34375 C 15.785156 0.34375 14.3125 0 13.03125 -0.6875 C 11.75 -1.375 10.75 -2.265625 10.03125 -3.359375 L 10.03125 11.453125 L 2.671875 11.453125 L 2.671875 -24.03125 L 10.03125 -24.03125 Z M 20.546875 -12.0625 C 20.546875 -13.894531 20.035156 -15.335938 19.015625 -16.390625 C 17.992188 -17.441406 16.738281 -17.96875 15.25 -17.96875 C 13.78125 -17.96875 12.535156 -17.4375 11.515625 -16.375 C 10.503906 -15.3125 10 -13.859375 10 -12.015625 C 10 -10.179688 10.503906 -8.734375 11.515625 -7.671875 C 12.535156 -6.609375 13.78125 -6.078125 15.25 -6.078125 C 16.71875 -6.078125 17.96875 -6.613281 19 -7.6875 C 20.03125 -8.769531 20.546875 -10.226562 20.546875 -12.0625 Z M 20.546875 -12.0625 ">
                        </path>
                    </g>
                </g>
            </g>
            <g fill="#000000" fill-opacity="1">
                <g transform="translate(86.995589, 45.717219)">
                    <g>
                        <path
                            d="M 6.375 -26.53125 C 5.082031 -26.53125 4.023438 -26.910156 3.203125 -27.671875 C 2.390625 -28.429688 1.984375 -29.375 1.984375 -30.5 C 1.984375 -31.644531 2.390625 -32.597656 3.203125 -33.359375 C 4.023438 -34.117188 5.082031 -34.5 6.375 -34.5 C 7.632812 -34.5 8.671875 -34.117188 9.484375 -33.359375 C 10.304688 -32.597656 10.71875 -31.644531 10.71875 -30.5 C 10.71875 -29.375 10.304688 -28.429688 9.484375 -27.671875 C 8.671875 -26.910156 7.632812 -26.53125 6.375 -26.53125 Z M 10.03125 -24.03125 L 10.03125 0 L 2.671875 0 L 2.671875 -24.03125 Z M 10.03125 -24.03125 ">
                        </path>
                    </g>
                </g>
            </g>
            <g fill="#000000" fill-opacity="1">
                <g transform="translate(99.702918, 45.717219)">
                    <g>
                        <path
                            d="M 1.203125 -12.0625 C 1.203125 -14.53125 1.664062 -16.695312 2.59375 -18.5625 C 3.53125 -20.425781 4.800781 -21.859375 6.40625 -22.859375 C 8.019531 -23.867188 9.816406 -24.375 11.796875 -24.375 C 13.378906 -24.375 14.820312 -24.046875 16.125 -23.390625 C 17.4375 -22.734375 18.46875 -21.84375 19.21875 -20.71875 L 19.21875 -31.875 L 26.578125 -31.875 L 26.578125 0 L 19.21875 0 L 19.21875 -3.453125 C 18.519531 -2.296875 17.53125 -1.375 16.25 -0.6875 C 14.976562 0 13.492188 0.34375 11.796875 0.34375 C 9.816406 0.34375 8.019531 -0.164062 6.40625 -1.1875 C 4.800781 -2.207031 3.53125 -3.65625 2.59375 -5.53125 C 1.664062 -7.414062 1.203125 -9.59375 1.203125 -12.0625 Z M 19.21875 -12.015625 C 19.21875 -13.859375 18.707031 -15.3125 17.6875 -16.375 C 16.664062 -17.4375 15.421875 -17.96875 13.953125 -17.96875 C 12.492188 -17.96875 11.253906 -17.441406 10.234375 -16.390625 C 9.210938 -15.335938 8.703125 -13.894531 8.703125 -12.0625 C 8.703125 -10.226562 9.210938 -8.769531 10.234375 -7.6875 C 11.253906 -6.613281 12.492188 -6.078125 13.953125 -6.078125 C 15.421875 -6.078125 16.664062 -6.609375 17.6875 -7.671875 C 18.707031 -8.734375 19.21875 -10.179688 19.21875 -12.015625 Z M 19.21875 -12.015625 ">
                        </path>
                    </g>
                </g>
            </g>
            <g fill="#ff6600" fill-opacity="1">
                <g transform="translate(128.9542, 45.717219)">
                    <g>
                        <path
                            d="M 18.09375 0 L 11.796875 -11.421875 L 10.03125 -11.421875 L 10.03125 0 L 2.671875 0 L 2.671875 -30.234375 L 15.03125 -30.234375 C 17.414062 -30.234375 19.445312 -29.816406 21.125 -28.984375 C 22.8125 -28.160156 24.070312 -27.019531 24.90625 -25.5625 C 25.738281 -24.113281 26.15625 -22.5 26.15625 -20.71875 C 26.15625 -18.707031 25.585938 -16.910156 24.453125 -15.328125 C 23.316406 -13.753906 21.640625 -12.632812 19.421875 -11.96875 L 26.40625 0 Z M 10.03125 -16.625 L 14.609375 -16.625 C 15.953125 -16.625 16.960938 -16.953125 17.640625 -17.609375 C 18.316406 -18.273438 18.65625 -19.210938 18.65625 -20.421875 C 18.65625 -21.566406 18.316406 -22.46875 17.640625 -23.125 C 16.960938 -23.789062 15.953125 -24.125 14.609375 -24.125 L 10.03125 -24.125 Z M 10.03125 -16.625 ">
                        </path>
                    </g>
                </g>
            </g>
            <g fill="#ff6600" fill-opacity="1">
                <g transform="translate(157.039559, 45.717219)">
                    <g>
                        <path
                            d="M 25.328125 -12.40625 C 25.328125 -11.71875 25.285156 -11 25.203125 -10.25 L 8.53125 -10.25 C 8.644531 -8.757812 9.125 -7.617188 9.96875 -6.828125 C 10.820312 -6.035156 11.863281 -5.640625 13.09375 -5.640625 C 14.9375 -5.640625 16.21875 -6.414062 16.9375 -7.96875 L 24.765625 -7.96875 C 24.367188 -6.382812 23.644531 -4.960938 22.59375 -3.703125 C 21.539062 -2.441406 20.222656 -1.453125 18.640625 -0.734375 C 17.066406 -0.015625 15.304688 0.34375 13.359375 0.34375 C 11.003906 0.34375 8.90625 -0.15625 7.0625 -1.15625 C 5.226562 -2.164062 3.789062 -3.601562 2.75 -5.46875 C 1.71875 -7.332031 1.203125 -9.515625 1.203125 -12.015625 C 1.203125 -14.515625 1.710938 -16.695312 2.734375 -18.5625 C 3.753906 -20.425781 5.179688 -21.859375 7.015625 -22.859375 C 8.859375 -23.867188 10.972656 -24.375 13.359375 -24.375 C 15.679688 -24.375 17.742188 -23.882812 19.546875 -22.90625 C 21.359375 -21.9375 22.773438 -20.546875 23.796875 -18.734375 C 24.816406 -16.929688 25.328125 -14.820312 25.328125 -12.40625 Z M 17.796875 -14.34375 C 17.796875 -15.601562 17.363281 -16.609375 16.5 -17.359375 C 15.632812 -18.109375 14.554688 -18.484375 13.265625 -18.484375 C 12.035156 -18.484375 10.992188 -18.125 10.140625 -17.40625 C 9.296875 -16.6875 8.773438 -15.664062 8.578125 -14.34375 Z M 17.796875 -14.34375 ">
                        </path>
                    </g>
                </g>
            </g>
            <g fill="#ff6600" fill-opacity="1">
                <g transform="translate(183.574206, 45.717219)">
                    <g>
                        <path
                            d="M 17.3125 -24.296875 C 20.132812 -24.296875 22.382812 -23.382812 24.0625 -21.5625 C 25.738281 -19.738281 26.578125 -17.234375 26.578125 -14.046875 L 26.578125 0 L 19.25 0 L 19.25 -13.046875 C 19.25 -14.660156 18.832031 -15.910156 18 -16.796875 C 17.164062 -17.691406 16.046875 -18.140625 14.640625 -18.140625 C 13.234375 -18.140625 12.113281 -17.691406 11.28125 -16.796875 C 10.445312 -15.910156 10.03125 -14.660156 10.03125 -13.046875 L 10.03125 0 L 2.671875 0 L 2.671875 -24.03125 L 10.03125 -24.03125 L 10.03125 -20.84375 C 10.78125 -21.90625 11.785156 -22.742188 13.046875 -23.359375 C 14.316406 -23.984375 15.738281 -24.296875 17.3125 -24.296875 Z M 17.3125 -24.296875 ">
                        </path>
                    </g>
                </g>
            </g>
            <g fill="#ff6600" fill-opacity="1">
                <g transform="translate(212.607228, 45.717219)">
                    <g>
                        <path
                            d="M 16.0625 -6.25 L 16.0625 0 L 12.328125 0 C 9.648438 0 7.5625 -0.648438 6.0625 -1.953125 C 4.570312 -3.265625 3.828125 -5.398438 3.828125 -8.359375 L 3.828125 -17.921875 L 0.90625 -17.921875 L 0.90625 -24.03125 L 3.828125 -24.03125 L 3.828125 -29.890625 L 11.203125 -29.890625 L 11.203125 -24.03125 L 16.03125 -24.03125 L 16.03125 -17.921875 L 11.203125 -17.921875 L 11.203125 -8.265625 C 11.203125 -7.546875 11.375 -7.03125 11.71875 -6.71875 C 12.0625 -6.40625 12.632812 -6.25 13.4375 -6.25 Z M 16.0625 -6.25 ">
                        </path>
                    </g>
                </g>
            </g>
        </g>
    </g>
</svg>